<svg xmlns="http://www.w3.org/2000/svg" width="53.003" height="69.6" viewBox="0 0 53.003 69.6">
  <g id="иконка_оставьте_заявку" data-name="иконка оставьте заявку" transform="translate(0.549 0.3)">
    <path id="Path_42" data-name="Path 42" d="M39.454,34.555a2.778,2.778,0,1,0-2.778-2.778A2.781,2.781,0,0,0,39.454,34.555Zm0-4.167a1.389,1.389,0,1,1-1.389,1.389A1.39,1.39,0,0,1,39.454,30.388Z" transform="translate(-0.47 7.913)" fill="#368a56" stroke="#fff" stroke-width="0.6"/>
    <path id="Path_43" data-name="Path 43" d="M16.787,12.443a1.108,1.108,0,0,0,.786-.326L19.795,9.9a1.111,1.111,0,0,0-1.571-1.571L16,10.547a1.111,1.111,0,0,0,.786,1.9Z" transform="translate(-6.04 0.89)" fill="#368a56" stroke="#fff" stroke-width="0.6"/>
    <path id="Path_44" data-name="Path 44" d="M59.478,34.209a3.763,3.763,0,0,0-1.11-2.678l-.641-.641A5.166,5.166,0,0,0,54.3,21.849a5.059,5.059,0,0,0-.621.046,5.06,5.06,0,0,0,.046-.621A5.181,5.181,0,0,0,48.552,16.1a5.06,5.06,0,0,0-.621.046,5.06,5.06,0,0,0,.046-.621A5.181,5.181,0,0,0,42.8,10.349a5.059,5.059,0,0,0-.621.046,5.059,5.059,0,0,0,.046-.621,5.166,5.166,0,0,0-9.041-3.426l-.913-.913L27.946,1.108a3.79,3.79,0,0,0-5.357,0L8.43,15.266a3.8,3.8,0,0,0,0,5.358l4.327,4.327L18.4,30.6a5.145,5.145,0,0,0-.306,8.786,1.7,1.7,0,0,0,.261.278L30.729,51.984v2.065h-2.3V69h29.9V54.049h-2.3V50.565a9.729,9.729,0,0,0,1.684-13.021l.657-.657A3.763,3.763,0,0,0,59.478,34.209Zm-2.3-7.185A2.872,2.872,0,0,1,56.1,29.263l-4.038-4.038a2.873,2.873,0,0,1,5.115,1.8Zm-5.75-5.75a2.872,2.872,0,0,1-1.078,2.239l-4.038-4.038a2.873,2.873,0,0,1,5.115,1.8Zm-5.75-5.75A2.872,2.872,0,0,1,44.6,17.763l-4.038-4.038a2.873,2.873,0,0,1,5.115,1.8ZM37.053,6.9a2.872,2.872,0,0,1,1.8,5.114L34.813,7.975A2.877,2.877,0,0,1,37.053,6.9Zm-27,12.1a1.492,1.492,0,0,1,0-2.106L24.215,2.735a1.1,1.1,0,0,1,.746-.375,1.444,1.444,0,0,1,.612,0,1.467,1.467,0,0,1,.256.051,1.492,1.492,0,0,1,.49.324l2.7,2.7L12.758,21.7ZM30.647,7.062,32,8.417l5.75,5.75.659.659L43.5,19.917l.659.659,5.091,5.091.659.659,5.75,5.75,1.081,1.081a1.489,1.489,0,0,1,0,2.1l-.5.5h0L42.584,49.421a1.49,1.49,0,0,1-2.106,0l-9.171-9.172h1.145a5.175,5.175,0,1,0,0-10.35h-11.5l-6.573-6.573ZM20.333,32.27l.477-.054a.985.985,0,0,1,.143-.017h11.5a2.875,2.875,0,0,1,0,5.75h-11.5a2.873,2.873,0,0,1-.62-5.679ZM30.729,66.7V56.348h9.69a6.418,6.418,0,0,1,6.41,6.41V66.7Zm25.3,0h-6.9v-3.94a8.68,8.68,0,0,0-2.834-6.41h9.733Zm.029-27.5a7.442,7.442,0,0,1-1.871,9.893l-.458.345v4.61h-20.7V50.923l-.406-.344c-.052-.045-.107-.086-.207-.161L22.206,40.247h5.848l10.8,10.8a3.794,3.794,0,0,0,5.358,0Z" transform="translate(-7.324 0.001)" fill="#368a56" stroke="#fff" stroke-width="0.6"/>
  </g>
</svg>
