<svg xmlns="http://www.w3.org/2000/svg" width="44.685" height="34" viewBox="0 0 44.685 34">
  <path id="Path_24" data-name="Path 24" d="M43.2,51.027l-17.813-8.7a7.3,7.3,0,0,0-5.682,0l-18.222,8.7A2.195,2.195,0,0,0,0,52.972c0,.461.2,1.28,1.484,1.945l1.484.717v8.19a2.508,2.508,0,0,0-1.587,2.3,2.541,2.541,0,0,0,1.536,2.3l-2.3,7.32H7.064l-2.3-7.32a2.48,2.48,0,0,0-.051-4.607V56.5l2.713,1.331V68.482a.826.826,0,0,0,.154.461A18.59,18.59,0,0,0,22.317,75.75a18.484,18.484,0,0,0,14.69-6.808.826.826,0,0,0,.154-.461v-10.6l6.04-2.969a2.195,2.195,0,0,0,1.484-1.945A2.288,2.288,0,0,0,43.2,51.027Zm-7.678,17.2a17.116,17.116,0,0,1-13.206,5.938A17.116,17.116,0,0,1,9.111,68.226V58.552l10.6,5.067a6.9,6.9,0,0,0,2.815.563,6.233,6.233,0,0,0,2.866-.614L35.523,58.6Zm6.961-14.741L36.342,56.5a.588.588,0,0,0-.563.307L24.671,62.186a5.683,5.683,0,0,1-4.3,0L6.705,55.634l15.714-1.843a.8.8,0,1,0-.154-1.587L4.044,54.354,2.2,53.484a1.032,1.032,0,0,1-.563-.461c0-.051.1-.256.563-.461L20.423,43.81a5.288,5.288,0,0,1,2.1-.409,5.188,5.188,0,0,1,2.15.409l17.813,8.7c.461.2.563.409.563.512A1.407,1.407,0,0,1,42.484,53.484Z" transform="translate(0 -41.75)" fill="#368a56"/>
</svg>
