<svg id="кавычки_верх" data-name="кавычки верх" xmlns="http://www.w3.org/2000/svg" width="32" height="29" viewBox="0 0 32 29">
  <g id="Path_15" data-name="Path 15" transform="translate(7.813)" fill="#368a56">
    <path d="M -0.7321727275848389 28 L -6.507448196411133 28 L 0.7662588953971863 1 L 7.821706771850586 1 L -0.7321727275848389 28 Z" stroke="none"/>
    <path d="M 1.53251051902771 2 L -5.202403545379639 27 L -1.464352369308472 27 L 6.455906391143799 2 L 1.53251051902771 2 M 0 0 L 9.1875 0 L 0 29 L -7.8125 29 L 0 0 Z" stroke="none" fill="#fff"/>
  </g>
  <g id="Path_16" data-name="Path 16" transform="translate(22.813)" fill="#368a56">
    <path d="M -0.7321727275848389 28 L -6.507448196411133 28 L 0.7662588953971863 1 L 7.821706771850586 1 L -0.7321727275848389 28 Z" stroke="none"/>
    <path d="M 1.53251051902771 2 L -5.202403545379639 27 L -1.464352369308472 27 L 6.455906391143799 2 L 1.53251051902771 2 M 0 0 L 9.1875 0 L 0 29 L -7.8125 29 L 0 0 Z" stroke="none" fill="#fff"/>
  </g>
</svg>
