<svg id="time" xmlns="http://www.w3.org/2000/svg" width="61" height="61" viewBox="0 0 61 61">
  <path id="Shape" d="M54.9,13.294V11.18A5.089,5.089,0,0,0,49.817,6.1H32.533V5.082A5.089,5.089,0,0,0,27.45,0H5.083A5.089,5.089,0,0,0,0,5.082V29.475a1.017,1.017,0,0,0,2.033,0V5.082a3.05,3.05,0,0,1,3.05-3.049H27.45A3.05,3.05,0,0,1,30.5,5.082V7.115a1.017,1.017,0,0,0,1.017,1.016h18.3a3.05,3.05,0,0,1,3.05,3.049v2.033H24.4a1.016,1.016,0,1,0,0,2.033H53.883a5.089,5.089,0,0,1,5.083,5.082V49.8a5.089,5.089,0,0,1-5.083,5.082h-18.3a1.016,1.016,0,1,0,0,2.033h18.3A7.124,7.124,0,0,0,61,49.8V20.327A7.121,7.121,0,0,0,54.9,13.294Z" fill="#368a56"/>
  <path id="Shape-2" data-name="Shape" d="M0,42.375A18.375,18.375,0,1,0,18.375,24,18.375,18.375,0,0,0,0,42.375ZM18.375,26.042A16.333,16.333,0,1,1,2.042,42.375,16.333,16.333,0,0,1,18.375,26.042Z" transform="translate(0 0.25)" fill="#368a56"/>
  <path id="Shape-3" data-name="Shape" d="M23.424,49.138a1.021,1.021,0,0,0,1.443-1.443l-5.826-5.826V29.021a1.021,1.021,0,1,0-2.042,0V42.292a1.021,1.021,0,0,0,.3.722Z" transform="translate(0.272 0.404)" fill="#368a56"/>
  <path id="Shape-4" data-name="Shape" d="M43.1,31H39.021a1.021,1.021,0,1,0,0,2.042H43.1A1.021,1.021,0,0,0,43.1,31Z" transform="translate(0.616 0.512)" fill="#368a56"/>
  <path id="Shape-5" data-name="Shape" d="M51.25,38H40.021a1.021,1.021,0,0,0,0,2.042H51.25a1.021,1.021,0,1,0,0-2.042Z" transform="translate(0.562 0.628)" fill="#368a56"/>
  <path id="Shape-6" data-name="Shape" d="M40.021,45a1.021,1.021,0,0,0,0,2.042h9.188a1.021,1.021,0,0,0,0-2.042Z" transform="translate(0.614 0.744)" fill="#368a56"/>
</svg>
