<svg xmlns="http://www.w3.org/2000/svg" width="32.981" height="46.48" viewBox="0 0 32.981 46.48">
  <g id="иконка_отходы" data-name="иконка отходы" transform="translate(0 0)">
    <path id="Path_42" data-name="Path 42" d="M556.7,873.205h-5.073l1.426-2.386c.048.175.184,1.222,1.086,1.222a.97.97,0,0,0,.97-1.242c-1.125-3.88-.514-3.57-4.627-2.542a.977.977,0,1,0,.233,1.94,2,2,0,0,0,.572-.116c-1.106,1.843-2.037,2.833-1.31,4.1s1.639.97,6.79.97a.975.975,0,1,0-.068-1.95Z" transform="translate(-542.151 -845.074)" fill="#368a56"/>
    <path id="Path_43" data-name="Path 43" d="M938.223,881.238l-.291-.281h2.745a1.94,1.94,0,0,0,1.707-2.91l-2.454-4.094a.97.97,0,0,0-1.668.97l2.415,4.094h-2.745l.291-.281a.974.974,0,1,0-1.377-1.378c-2.018,2.027-2.037,2-2.144,2.26a.97.97,0,0,0,.2,1.057c2.115,2.115,2.1,2.221,2.629,2.221a.97.97,0,0,0,.689-1.659Z" transform="translate(-917.163 -850.886)" fill="#368a56"/>
    <path id="Path_44" data-name="Path 44" d="M740.518,565.347c.272-.262.213-.213.97-3.036a.97.97,0,0,0-1.814-.524c-.078.262.155.534-1.368-2.018a1.94,1.94,0,0,0-3.327,0l-2.532,4.21a.97.97,0,0,0,1.668.97l2.522-4.191,1.455,2.435-.7-.184a.972.972,0,0,0-.485,1.882C739.742,565.609,740,565.842,740.518,565.347Z" transform="translate(-720.148 -544.326)" fill="#368a56"/>
    <path id="Path_45" data-name="Path 45" d="M291.234,35.416,292.718,9.7h.97a.97.97,0,0,0,.97-.97V4.85a.97.97,0,0,0-.97-.97h-1.067A4.85,4.85,0,0,0,287.868,0h-19.4a4.85,4.85,0,0,0-4.753,3.881h-1.067a.97.97,0,0,0-.97.97V8.73a.97.97,0,0,0,.97.97h1.019l1.892,34.01a.97.97,0,0,0,.97.912h17.946a5.82,5.82,0,1,0,6.79-9.206ZM268.467,1.94h19.4a2.91,2.91,0,0,1,2.745,1.94H265.722A2.91,2.91,0,0,1,268.467,1.94Zm-4.85,3.88h29.1V7.76h-29.1Zm3.88,36.862L265.615,9.7h25.1l-1.4,25.221a5.82,5.82,0,0,0-5.995,7.76Zm21.341,1.94a3.88,3.88,0,1,1,3.88-3.88A3.88,3.88,0,0,1,288.838,44.622Z" transform="translate(-261.676)" fill="#368a56"/>
  </g>
</svg>
