<svg id="иконка_мед_лицензия" data-name="иконка мед лицензия" xmlns="http://www.w3.org/2000/svg" width="34.667" height="34.667" viewBox="0 0 34.667 34.667">
  <path id="Path_21" data-name="Path 21" d="M17.333,0A17.333,17.333,0,1,0,34.667,17.333,17.344,17.344,0,0,0,17.333,0Zm0,33.163a15.83,15.83,0,1,1,15.83-15.83A15.847,15.847,0,0,1,17.333,33.163Z" fill="#368a56"/>
  <path id="Path_22" data-name="Path 22" d="M91.2,78.414H85.933V73.152a.749.749,0,0,0-.752-.752H79.166a.749.749,0,0,0-.752.752v5.263H73.152a.749.749,0,0,0-.752.752v6.014a.749.749,0,0,0,.752.752h5.263V91.2a.749.749,0,0,0,.752.752h6.014a.749.749,0,0,0,.752-.752V85.933H91.2a.749.749,0,0,0,.752-.752V79.166A.808.808,0,0,0,91.2,78.414Zm-.71,6.014h-5.3a.749.749,0,0,0-.752.752v5.263H79.918V85.181a.749.749,0,0,0-.752-.752H73.9V79.918h5.263a.749.749,0,0,0,.752-.752V73.9h4.553v5.263a.749.749,0,0,0,.752.752h5.263Z" transform="translate(-64.84 -64.84)" fill="#368a56"/>
</svg>
