<svg id="иконка_проверки_роспотребнадззора" data-name="иконка проверки роспотребнадззора" xmlns="http://www.w3.org/2000/svg" width="30.64" height="39" viewBox="0 0 30.64 39">
  <path id="Path_26" data-name="Path 26" d="M73.778,5.11H70.249V3.531c0-.511-.557-.743-1.068-.743H66.443A4.153,4.153,0,0,0,62.311,0a4.225,4.225,0,0,0-4.132,2.785H55.486c-.511,0-1.021.232-1.021.743V5.11H50.937a3.946,3.946,0,0,0-3.9,3.76v26.6A3.735,3.735,0,0,0,50.937,39H73.778a3.735,3.735,0,0,0,3.9-3.528V8.87A3.946,3.946,0,0,0,73.778,5.11ZM56.322,4.646h2.553a1.021,1.021,0,0,0,.882-.836,2.693,2.693,0,0,1,2.553-2.089A2.646,2.646,0,0,1,64.818,3.81a1.021,1.021,0,0,0,.928.836h2.646V8.36H56.322Zm19.5,30.826a1.883,1.883,0,0,1-2.043,1.671H50.937a1.883,1.883,0,0,1-2.043-1.671V8.87a2.089,2.089,0,0,1,2.043-1.9h3.528V9.335a.975.975,0,0,0,1.021.882h13.7a1.021,1.021,0,0,0,1.068-.882V6.967h3.528a2.089,2.089,0,0,1,2.043,1.9v26.6Z" transform="translate(-47.037 0)" fill="#368a56"/>
  <path id="Path_27" data-name="Path 27" d="M106.475,230.6a.928.928,0,0,0-1.3-.046l-2.971,2.832-1.253-1.3a.929.929,0,0,0-1.3-.046.975.975,0,0,0,0,1.346l1.9,1.95a.836.836,0,0,0,.65.279.928.928,0,0,0,.65-.279l3.621-3.435a.882.882,0,0,0,.054-1.246Q106.5,230.626,106.475,230.6Z" transform="translate(-94.73 -209.846)" fill="#368a56"/>
  <path id="Path_28" data-name="Path 28" d="M210.154,256.034H199.477a.929.929,0,0,0,0,1.857h10.678a.929.929,0,0,0,0-1.857Z" transform="translate(-185.085 -233.283)" fill="#368a56"/>
  <path id="Path_29" data-name="Path 29" d="M106.475,147.009a.929.929,0,0,0-1.3-.046l-2.971,2.832-1.253-1.3a.928.928,0,0,0-1.3-.046.975.975,0,0,0,0,1.346l1.9,1.95a.835.835,0,0,0,.65.279.928.928,0,0,0,.65-.279l3.621-3.435a.882.882,0,0,0,.054-1.246Q106.5,147.034,106.475,147.009Z" transform="translate(-94.73 -133.682)" fill="#368a56"/>
  <path id="Path_30" data-name="Path 30" d="M210.154,172.442H199.477a.928.928,0,1,0,0,1.857h10.678a.928.928,0,0,0,0-1.857Z" transform="translate(-185.085 -157.119)" fill="#368a56"/>
  <path id="Path_31" data-name="Path 31" d="M106.475,314.192a.929.929,0,0,0-1.3-.046l-2.971,2.832-1.253-1.3a.928.928,0,0,0-1.3-.046.975.975,0,0,0,0,1.346l1.9,1.95a.835.835,0,0,0,.65.279.928.928,0,0,0,.65-.279l3.621-3.435a.882.882,0,0,0,.054-1.246Q106.5,314.218,106.475,314.192Z" transform="translate(-94.73 -286.01)" fill="#368a56"/>
  <path id="Path_32" data-name="Path 32" d="M210.154,339.626H199.477a.929.929,0,0,0,0,1.857h10.678a.929.929,0,0,0,0-1.857Z" transform="translate(-185.085 -309.447)" fill="#368a56"/>
</svg>
