<svg xmlns="http://www.w3.org/2000/svg" width="54.333" height="66.757" viewBox="0 0 54.333 66.757">
  <g id="иконка_мчс" data-name="иконка мчс" transform="translate(0.17 0.109)">
    <g id="Path_34" data-name="Path 34" transform="translate(19 25.522)" fill="#368a56">
      <path d="M 8.5 15.5 C 4.088789939880371 15.5 0.5 12.13551044464111 0.5 8 C 0.5 3.864490032196045 4.088789939880371 0.5 8.5 0.5 C 12.91121006011963 0.5 16.5 3.864490032196045 16.5 8 C 16.5 12.13551044464111 12.91121006011963 15.5 8.5 15.5 Z" stroke="none"/>
      <path d="M 8.5 1 C 4.364489555358887 1 1 4.140190124511719 1 8 C 1 11.85980987548828 4.364489555358887 15 8.5 15 C 12.6355094909668 15 16 11.85980987548828 16 8 C 16 4.140190124511719 12.6355094909668 1 8.5 1 M 8.5 0 C 13.19441986083984 0 17 3.581720352172852 17 8 C 17 12.41827964782715 13.19441986083984 16 8.5 16 C 3.805580139160156 16 0 12.41827964782715 0 8 C 0 3.581720352172852 3.805580139160156 0 8.5 0 Z" stroke="none" fill="#368a56"/>
    </g>
    <path id="Polygon_2" data-name="Polygon 2" d="M6.5,0,13,13H0Z" transform="translate(21 25.522)" fill="#fff"/>
    <path id="Path_35" data-name="Path 35" d="M768.857,2710.84l-3.745,2.124-6.874,3.9,6.381-11.173L746,2700.646l18.857-3.965-6.19-11.379,10.952,6.488,4.143-24.456,4.1,24.25,10.19-5.458-6.191,10.813L800,2700.646l-17.9,4.634,6.524,13.078-11.1-7.518-4.1,23.015Z" transform="translate(-746 -2667.333)" fill="none" stroke="#368a56" stroke-linejoin="bevel" stroke-width="1.3"/>
  </g>
</svg>
