<svg xmlns="http://www.w3.org/2000/svg" width="40.3" height="42.586" viewBox="0 0 40.3 42.586">
  <g id="получено_более_300_лицензйи" data-name="получено более 300 лицензйи" transform="translate(-20.85 0.487)">
    <path id="Path_97" data-name="Path 97" d="M63.553,130.983A2.492,2.492,0,1,0,61,128.491,2.526,2.526,0,0,0,63.553,130.983Zm0-3.322a.831.831,0,1,1-.851.83A.842.842,0,0,1,63.553,127.661Z" transform="translate(-36.596 -115.599)" fill="#368a56"/>
    <path id="Path_98" data-name="Path 98" d="M201.833,97.057h10c.46,0,.833-.237.833-.529s-.373-.529-.833-.529h-10c-.46,0-.833.237-.833.529S201.373,97.057,201.833,97.057Z" transform="translate(-165 -88.205)" fill="#368a56"/>
    <path id="Path_99" data-name="Path 99" d="M201.833,157.057h10c.46,0,.833-.237.833-.529s-.373-.529-.833-.529h-10c-.46,0-.833.237-.833.529S201.373,157.057,201.833,157.057Z" transform="translate(-165 -143.326)" fill="#368a56"/>
    <path id="Path_100" data-name="Path 100" d="M171.833,217.057h12.5c.46,0,.833-.237.833-.529s-.373-.529-.833-.529h-12.5c-.46,0-.833.237-.833.529S171.373,217.057,171.833,217.057Z" transform="translate(-137.5 -198.447)" fill="#368a56"/>
    <path id="Path_101" data-name="Path 101" d="M171.833,277.057h12.5c.46,0,.833-.237.833-.529s-.373-.529-.833-.529h-12.5c-.46,0-.833.237-.833.529S171.373,277.057,171.833,277.057Z" transform="translate(-137.5 -253.568)" fill="#368a56"/>
    <path id="Path_102" data-name="Path 102" d="M185.167,336.529c0-.292-.373-.529-.833-.529h-12.5c-.46,0-.833.237-.833.529s.373.529.833.529h12.5C184.794,337.057,185.167,336.82,185.167,336.529Z" transform="translate(-137.5 -308.689)" fill="#368a56"/>
    <path id="Path_103" data-name="Path 103" d="M25.681,42.286h5.957a.826.826,0,1,0,0-1.652H25.681A2.939,2.939,0,0,1,22.7,37.743V37.33H43.979v.413a4.441,4.441,0,0,0,1.073,2.891H39.3a.826.826,0,1,0,0,1.652H48.66a4.618,4.618,0,0,0,4.681-4.542V9.085h6.809A.839.839,0,0,0,61,8.259V4.542A4.618,4.618,0,0,0,56.319,0H30.787a4.618,4.618,0,0,0-4.681,4.542v2.62A5.849,5.849,0,0,0,21,12.884a5.755,5.755,0,0,0,2.553,4.744v7.645a.82.82,0,0,0,.4.7.874.874,0,0,0,.828.036l1.322-.641V35.679H21.851A.839.839,0,0,0,21,36.5v1.239A4.618,4.618,0,0,0,25.681,42.286ZM59.3,4.542V7.433H53.34V4.542a2.98,2.98,0,0,1,5.957,0ZM22.7,12.884a4.257,4.257,0,0,1,8.511,0,4.124,4.124,0,0,1-2.128,3.577,4.373,4.373,0,0,1-4.254,0A4.124,4.124,0,0,1,22.7,12.884Zm2.553,5.54a6.133,6.133,0,0,0,3.4,0v5.512l-1.322-.641a.883.883,0,0,0-.761,0l-1.322.641Zm2.553,6.946,1.322.641a.873.873,0,0,0,.828-.036.821.821,0,0,0,.4-.7V17.628a5.755,5.755,0,0,0,2.553-4.744,5.849,5.849,0,0,0-5.106-5.721V4.542a2.94,2.94,0,0,1,2.979-2.891H52.711a4.437,4.437,0,0,0-1.073,2.891v33.2a2.98,2.98,0,0,1-5.957,0V36.5a.839.839,0,0,0-.851-.826H27.809Z" transform="translate(0 -0.337)" fill="#368a56" stroke="#fff" stroke-width="0.3"/>
  </g>
</svg>
