<svg id="более_150_компаний" data-name="более 150 компаний" xmlns="http://www.w3.org/2000/svg" width="36" height="55" viewBox="0 0 36 55">
  <path id="Path_90" data-name="Path 90" d="M138.586,43.807h10.369a.6.6,0,0,0,0-1.2H138.586a.6.6,0,1,0,0,1.2Z" transform="translate(-133.298 -38.841)" fill="#368a56"/>
  <path id="Path_91" data-name="Path 91" d="M133.918,81.917h10.836a.6.6,0,1,0,0-1.2H133.918a.6.6,0,1,0,0,1.2Z" transform="translate(-129.097 -73.136)" fill="#368a56"/>
  <path id="Path_92" data-name="Path 92" d="M133.989,120.028h27.05a.6.6,0,1,0,0-1.2h-27.05a.6.6,0,1,0,0,1.2Z" transform="translate(-129.097 -106.33)" fill="#368a56"/>
  <path id="Path_93" data-name="Path 93" d="M161.039,158.138a.6.6,0,1,0,0-1.2h-27.05a.6.6,0,1,0,0,1.2Z" transform="translate(-129.097 -140.255)" fill="#368a56"/>
  <path id="Path_94" data-name="Path 94" d="M122.07,48.2a1.431,1.431,0,0,0,1.163.6,1.446,1.446,0,0,0,.573-.119l2.488-1.072a1.435,1.435,0,0,0,.732-1.93l-.865-1.835-.19-36.321A2.532,2.532,0,0,0,123.431,5H95.7a2.532,2.532,0,0,0-2.54,2.517V42.255L91.33,45.74a1.427,1.427,0,0,0,.57,1.919l2.362,1.324a1.43,1.43,0,0,0,.7.185,1.452,1.452,0,0,0,.411-.06,1.427,1.427,0,0,0,.863-.707l.256-.484.852.706-1.5,2.064a2.282,2.282,0,0,0,2.238,3.592.128.128,0,0,1,0,.013,2.277,2.277,0,0,0,2.248,1.917,2.313,2.313,0,0,0,.4-.035s0,.009,0,.014a2.278,2.278,0,0,0,2.644,1.883s0,.009,0,.013a2.284,2.284,0,0,0,4.1.973l.474-.654.887.7a2.453,2.453,0,0,0,3.432-.26,2.414,2.414,0,0,0,.576-1.28,2.448,2.448,0,0,0,2.548-.736,2.414,2.414,0,0,0,.576-1.28,2.447,2.447,0,0,0,2.548-.736,2.414,2.414,0,0,0,.561-1.194,2.458,2.458,0,0,0,2.744-.679l.029-.034a2.379,2.379,0,0,0-.248-3.367l-.54-.463a5.2,5.2,0,0,0,1-.882Zm3.775-1.87a.121.121,0,0,1-.068.07l-2.488,1.072a.131.131,0,0,1-.17-.061l-.314-.663a.66.66,0,0,0-.117-.247L117.022,34.55a.113.113,0,0,1,0-.092.121.121,0,0,1,.071-.07l2.557-1a.13.13,0,0,1,.166.063l6.028,12.786A.114.114,0,0,1,125.845,46.325ZM94.471,7.517a1.218,1.218,0,0,1,1.23-1.2h27.73a1.218,1.218,0,0,1,1.23,1.206l.175,33.507L121,32.887a1.443,1.443,0,0,0-1.827-.725l-2.557,1a1.435,1.435,0,0,0-.774,1.952l.267.563-.081.034a5.022,5.022,0,0,1-2.666-.11l-2.554-.714a4.046,4.046,0,0,0-2.309.037l-2.465.775a4.037,4.037,0,0,0-1.35.729,5.243,5.243,0,0,0-2.019-.192l.179-.339a1.437,1.437,0,0,0-.527-1.9l-2.348-1.42a1.44,1.44,0,0,0-2.019.561L94.47,39.76Zm.609,40.268a.124.124,0,0,1-.076.062.131.131,0,0,1-.1-.011l-2.362-1.324a.119.119,0,0,1-.049-.159l6.618-12.6a.124.124,0,0,1,.078-.062.142.142,0,0,1,.037-.005.13.13,0,0,1,.068.019l2.347,1.42a.118.118,0,0,1,.046.157Zm2.05,5.034a.972.972,0,0,1-.22-1.359l2.454-3.387a.972.972,0,1,1,1.576,1.138l-.666.918L98.5,52.584l-.01.014A.975.975,0,0,1,97.13,52.819Zm2.645,1.9a.97.97,0,0,1-.22-1.357l1.78-2.456a.972.972,0,1,1,1.574,1.139l-.561.774-1.206,1.664-.01.014a.977.977,0,0,1-1.357.222Zm2.648,1.9a.972.972,0,0,1-.22-1.36l1.224-1.69A.972.972,0,1,1,105,54.7l-.813,1.122-.4.555h0l-.01.014a.976.976,0,0,1-1.355.22Zm4,1.674a.972.972,0,1,1-1.577-1.136l.672-.927a.972.972,0,1,1,1.576,1.138Zm14.448-6.24-.029.034a1.147,1.147,0,0,1-1.609.123l-.955-.821,0,0L115.742,49.2a.656.656,0,1,0-.852,1l.013.011.022.019,2.5,2.149a1.112,1.112,0,0,1,.112,1.573,1.142,1.142,0,0,1-1.6.116L113.4,51.892a.655.655,0,0,0-1.081.487v0a.656.656,0,0,0,.229.51l1.747,1.5a1.112,1.112,0,0,1,.116,1.577,1.142,1.142,0,0,1-1.6.116l-.785-.674h0l-.961-.825a.656.656,0,0,0-.852,1l.836.717.125.108a1.113,1.113,0,0,1,.116,1.577,1.142,1.142,0,0,1-1.6.116l-.019-.016-1.116-.887a2.274,2.274,0,0,0-2.088-2.684,2.275,2.275,0,0,0-2.093-2.66,2.276,2.276,0,0,0-2.005-2.653,2.283,2.283,0,0,0-4.061-1.9l-.187.258-1-.827,4.767-9.025a4.8,4.8,0,0,1,1.843-.145,4.065,4.065,0,0,0-.206.416l-.754,1.825c-.193.468-.371.949-.53,1.43l-.752,2.281a.658.658,0,0,0,.357.808l.162.072a3.913,3.913,0,0,0,3.763-.289,3.816,3.816,0,0,0,1.705-2.82q.006-.057.01-.114c.036-.17.265-1.122.9-1.2l1.053.3a2.412,2.412,0,0,1,1.037.6l6.724,6.61.033.03,3.532,3.033a1.061,1.061,0,0,1,.111,1.5ZM118.1,46.524l-6.708-6.594a3.725,3.725,0,0,0-1.6-.927l-1.155-.324a.627.627,0,0,0-.179-.024,2.129,2.129,0,0,0-1.877,1.23,3.833,3.833,0,0,0-.385,1.087.645.645,0,0,0-.008.065q0,.06-.01.121a2.506,2.506,0,0,1-1.123,1.849,2.623,2.623,0,0,1-2.12.322l.555-1.684c.148-.451.315-.9.5-1.339l.751-1.819a2.718,2.718,0,0,1,1.691-1.53l2.465-.775a2.743,2.743,0,0,1,1.565-.025l2.554.714a6.267,6.267,0,0,0,3.35.117.649.649,0,0,0,.119-.037l.193-.082L121.42,46.88a3.89,3.89,0,0,1-1.392,1.3Z" transform="translate(-91.162 -5)" fill="#368a56"/>
  <path id="Path_95" data-name="Path 95" d="M138.514,195.3a2.649,2.649,0,0,0,1.128.238,3.019,3.019,0,0,0,1.587-.442,3.224,3.224,0,0,0,.87-.86c.039-.053.087-.116.129-.167a2.726,2.726,0,0,0,.534.371,3.561,3.561,0,0,0,1.607.41,3.661,3.661,0,0,0,1.919-.5.6.6,0,1,0-.6-1.038,2.455,2.455,0,0,1-1.288.342,2.355,2.355,0,0,1-1.065-.267,1.61,1.61,0,0,1-.353-.254,1.058,1.058,0,0,0-.715-.326,1.365,1.365,0,0,0-1.124.712,2.123,2.123,0,0,1-.55.565,1.788,1.788,0,0,1-1.56.135,1.164,1.164,0,0,1-.377-.3,2.811,2.811,0,0,0,1.292-.55,3.031,3.031,0,0,0,.856-1.079,1.524,1.524,0,0,0-.009-1.5,1.613,1.613,0,0,0-1.127-.663,2.505,2.505,0,0,0-1.887.433,2.416,2.416,0,0,0-.8,1.956l-.011,0a.6.6,0,1,0-.473,1.1,4.371,4.371,0,0,0,.75.245,2.67,2.67,0,0,0,1.278,1.438Zm.007-3.8a1.229,1.229,0,0,1,.722-.208,1.374,1.374,0,0,1,.223.018.523.523,0,0,1,.315.129c.063.1-.131.629-.578.979a1.726,1.726,0,0,1-1.015.339A1.468,1.468,0,0,1,138.52,191.5Z" transform="translate(-131.621 -169.603)" fill="#368a56"/>
  <path id="Path_96" data-name="Path 96" d="M294.539,215.417h-9.015a.6.6,0,1,0,0,1.2h9.015a.6.6,0,1,0,0-1.2Z" transform="translate(-262.526 -192.315)" fill="#368a56"/>
</svg>
