<?xml version="1.0" encoding="utf-8"?>
<!-- Generator: Adobe Illustrator 23.1.0, SVG Export Plug-In . SVG Version: 6.00 Build 0)  -->
<svg version="1.1" id="Слой_1" xmlns="http://www.w3.org/2000/svg" xmlns:xlink="http://www.w3.org/1999/xlink" x="0px" y="0px"
	 viewBox="0 0 890.3 868" style="enable-background:new 0 0 890.3 868;" xml:space="preserve">
<style type="text/css">
	.st0{opacity:0.39;fill:#EEEFF3;stroke:#FFFFFF;stroke-width:20;stroke-linejoin:round;enable-background:new    ;}
</style>
<path id="фон_буква_v_под_слайдром" class="st0" d="M449.1,707.8c27.7-46.3,56.1-99.3,85.1-159
	c29-59.7,57.1-121.6,84.1-185.7c27.1-64,52.1-128.6,75.2-193.8S736.2,43.1,752-14h128.3c-23.8,76.4-50.3,151.8-79.4,226.1
	C771.8,286.3,741,359,708.5,430c-32.4,71-66.2,139.4-101.3,205.1C572.2,700.8,495.1,817.5,449.1,834l0,0
	c-34.4-4.1-132.5-133.2-166.9-198.9s-67.9-134-100.3-205.1s-63.2-143.7-92.4-218S33.8,62.4,10-14h136.2
	c15.9,57.1,35.3,118.1,58.4,183.3S252.8,299,279.8,363c27.1,64,55.1,125.9,84.2,185.7S421.4,661.5,449.1,707.8z"/>
</svg>
