<svg width="354" height="128" viewBox="0 0 354 128" fill="none" xmlns="http://www.w3.org/2000/svg">
<g clip-path="url(#clip0)">
<path fill-rule="evenodd" clip-rule="evenodd" d="M100.528 45.9989C103.615 45.9989 106.248 47.0337 108.434 49.1164L104.102 36.6213L100.528 45.9989ZM99.9316 47.8993L97.4669 54.765C97.3825 55.0318 97.3116 55.3248 97.2464 55.6372C97.175 55.9494 97.1165 56.3529 97.0521 56.8543C97.0521 57.5373 97.2464 58.0777 97.6227 58.4614C98.0055 58.8455 98.5438 59.0345 99.2377 59.0345V59.4249H91.2411V59.0213C91.9869 58.9495 92.6225 58.6114 93.1473 58.0254C93.6796 57.4334 94.2111 56.4248 94.7561 54.9994L101.689 36.6213C101.858 36.2178 101.942 35.8338 101.942 35.4822C101.942 34.7205 101.527 34.2458 100.697 34.0568V33.7316H109.375V34.0568C108.648 34.2458 108.246 34.7205 108.168 35.4822L108.311 36.068L108.454 36.6993L115.354 56.6005C115.439 56.8995 115.549 57.1597 115.665 57.4009C115.789 57.6351 115.964 57.902 116.191 58.2144C116.58 58.761 117.06 59.0345 117.631 59.0345V59.4249H108.719V59.0213C110.004 58.6959 110.639 57.811 110.639 56.3726C110.639 55.175 110.179 53.9191 109.251 52.5916C108.324 51.2702 107.04 50.1641 105.392 49.2726C104.542 48.8167 103.674 48.4719 102.791 48.2441C101.916 48.0164 100.956 47.8993 99.9316 47.8993ZM126.658 45.7515V55.2468L126.574 55.5134C126.612 55.982 126.703 56.3726 126.839 56.6784C126.917 56.9322 127.125 57.1277 127.469 57.2642C128.084 57.4202 128.934 57.5507 130.012 57.6678C130.511 57.6678 130.854 57.6608 131.061 57.6417C131.263 57.6218 131.607 57.5698 132.093 57.4985C132.579 57.42 133.215 57.2708 133.987 57.0559C135.251 56.711 136.186 56.223 136.782 55.5918C137.994 54.1923 138.604 52.6957 138.604 51.1077C138.604 49.637 138.099 48.2375 137.093 46.9164C136.088 45.5955 134.557 44.4762 132.508 43.5582L126.658 45.7515ZM126.658 43.9618C128.76 43.4024 130.491 42.7646 131.866 42.0488C133.24 41.3326 134.234 40.6103 134.843 39.8878C135.459 39.1656 135.764 38.4758 135.764 37.8317C135.764 36.2698 134.11 35.4889 130.809 35.4889C129.758 35.4889 128.973 35.5276 128.468 35.6121C127.961 35.6971 127.559 35.8338 127.268 36.0222C127.015 36.2112 126.839 36.4843 126.755 36.8425L126.658 37.467V38.3066V43.9618ZM134.551 42.7062C137.436 43.6107 139.57 44.86 140.94 46.4612C142.314 48.0618 143.001 49.7929 143.001 51.6478C143.001 52.1944 142.956 52.7216 142.872 53.2229C142.782 53.7236 142.638 54.1923 142.45 54.6219C141.997 55.8388 141.25 56.7956 140.206 57.4921C139.169 58.1818 137.962 58.6765 136.594 58.9759C135.218 59.2751 133.851 59.4249 132.495 59.4249H119.809V59.0213C120.71 58.9108 121.359 58.5723 121.748 58.0061C122.144 57.4399 122.339 56.5221 122.339 55.253V38.762C122.339 38.1634 122.319 37.6494 122.28 37.2134C122.241 36.7706 122.183 36.3931 122.092 36.0742C121.937 35.469 121.677 34.9941 121.314 34.6686C120.996 34.4083 120.497 34.2065 119.809 34.0568V33.7316H134.557C138.448 33.7316 140.394 34.877 140.394 37.1614C140.394 37.4022 140.388 37.5776 140.374 37.6886C140.363 37.7925 140.317 37.9488 140.246 38.1506C140.154 38.4563 139.998 38.7818 139.785 39.1266C139.441 39.6862 138.844 40.2593 137.994 40.8383C137.21 41.3851 136.062 42.0098 134.551 42.7062ZM154.953 35.7232C154.195 35.7232 153.488 35.7618 152.826 35.8465C152.171 35.931 151.536 36.0483 150.926 36.1981C149.811 36.465 148.825 36.9922 147.955 37.7731C147.086 38.5541 146.366 39.6406 145.783 41.0268L145.459 40.8706L147.378 33.1852C147.527 33.4842 148.007 33.686 148.819 33.7966L149.596 33.7316H164.59C164.908 33.7316 165.116 33.7511 165.221 33.7966C165.472 33.7966 165.655 33.7966 165.758 33.7843C165.869 33.7705 166.013 33.7255 166.186 33.6537C166.452 33.5366 166.686 33.3873 166.886 33.1855L168.807 40.871L168.41 41.0273C167.191 37.4936 164.162 35.7235 159.312 35.7235V55.0844C159.312 56.2299 159.429 57.0889 159.655 57.6615C159.882 58.2341 160.175 58.5989 160.53 58.748L161.102 58.9566L161.802 59.0349V59.4252H152.463V59.0349C153.222 59.0349 153.831 58.7808 154.279 58.28C154.727 57.7787 154.953 56.796 154.953 55.3319V35.7235V35.7232ZM176.983 49.1875C177.476 51.0684 178.197 52.6696 179.15 53.9972C180.097 55.3183 181.174 56.2882 182.374 56.9127C182.625 57.0493 182.911 57.1797 183.223 57.3029C183.534 57.4202 183.859 57.5313 184.196 57.6351C184.869 57.811 185.498 57.902 186.077 57.902C187.535 57.902 188.95 57.4921 190.312 56.6656C191.595 55.8974 192.64 54.7909 193.459 53.3268C194.274 51.8626 194.683 50.2161 194.683 48.368C194.683 46.3633 194.274 44.346 193.451 42.3286C192.627 40.311 191.44 38.6386 189.892 37.3172C188.333 35.9963 186.537 35.3323 184.482 35.3323C182.873 35.3323 181.465 35.8142 180.245 36.7839C179.035 37.747 178.086 38.9964 177.399 40.5389C177.236 40.9292 177.081 41.3265 176.945 41.7299C176.803 42.1268 176.693 42.5044 176.601 42.862C176.44 43.6497 176.354 44.4177 176.354 45.166C176.354 45.7647 176.394 46.3567 176.471 46.9491C176.542 47.5412 176.718 48.29 176.983 49.1875ZM185.427 33.1852C186.933 33.1852 188.333 33.3604 189.637 33.7119C190.935 34.0568 192.122 34.5714 193.198 35.2412C195.287 36.4975 196.842 38.1634 197.861 40.2332C198.879 42.3026 199.391 44.4825 199.391 46.7668C199.391 48.5762 199.028 50.2812 198.309 51.8951C197.59 53.5092 196.577 54.928 195.281 56.1645C193.983 57.3942 192.452 58.3509 190.688 59.0279C188.929 59.711 187.049 60.0494 185.046 60.0494C184.553 60.0494 184.073 60.0235 183.599 59.9715C183.133 59.9195 182.666 59.8414 182.205 59.7243C181.745 59.6134 181.302 59.4833 180.882 59.3335C180.466 59.1905 180.021 59.0018 179.534 58.7741C177.925 58.0518 176.576 57.0885 175.485 55.8846C174.396 54.687 173.533 53.3268 172.885 51.7975C172.58 51.0491 172.328 50.2683 172.114 49.448C171.906 48.6283 171.801 47.8407 171.801 47.0923C171.801 45.2635 172.114 43.5064 172.743 41.8146C173.372 40.1288 174.26 38.6386 175.42 37.3566C176.582 36.0742 177.99 35.0594 179.643 34.3109C181.29 33.5622 183.118 33.1852 185.124 33.1852H185.427ZM211.193 45.6867C211.889 45.4849 212.622 45.2374 213.4 44.9446C214.172 44.6519 214.891 44.333 215.56 43.9944C217.006 43.2787 218.218 42.4849 219.204 41.5995C220.19 40.7146 220.69 39.8293 220.69 38.9378C220.69 38.1114 220.358 37.4476 219.711 36.9402C219.056 36.4323 218.264 36.0614 217.324 35.8337C216.39 35.606 215.539 35.4889 214.781 35.4889C214.198 35.4889 213.692 35.5409 213.257 35.6387C212.816 35.7425 212.415 35.8857 212.05 36.0614C211.479 36.3544 211.193 36.9722 211.193 37.9098V45.6867ZM211.193 47.5936V55.0125C211.193 57.6937 212.025 59.0345 213.686 59.0345V59.4249H204.346V59.0213C205.008 58.8847 205.482 58.7284 205.779 58.5459C206.078 58.3707 206.345 57.9734 206.571 57.3615C206.772 56.7176 206.876 55.8001 206.876 54.6219V37.8965C206.876 36.6731 206.661 35.7292 206.239 35.0527C205.811 34.3822 205.182 34.044 204.346 34.044V33.7316H219.089C220.799 33.7316 222.194 34.07 223.27 34.7533C224.347 35.4302 224.886 36.4843 224.886 37.9098L224.808 38.7687C224.697 39.5302 224.347 40.3045 223.764 41.0921C223.498 41.463 223.149 41.8533 222.714 42.2632C222.272 42.6801 221.799 43.0703 221.279 43.435C220.216 44.19 218.841 44.9185 217.154 45.6282C215.527 46.3047 213.537 46.9558 211.193 47.5936ZM252.208 59.4249H244.621V59.0345C245.43 59.0345 246.059 58.7156 246.514 58.0712C246.962 57.4268 247.189 56.5159 247.189 55.3314V36.8551L234.93 46.9945L233.849 47.8733C233.608 48.049 233.394 48.2833 233.193 48.5698C232.999 48.8559 232.863 49.2075 232.79 49.637C232.713 50.0597 232.675 50.6588 232.675 51.42V55.3703C232.675 57.6484 233.557 58.8716 235.321 59.0345V59.4249H227.654V59.0213C229.315 58.8716 230.145 57.6544 230.145 55.3641V37.8965C230.145 36.8551 230.028 36.0742 229.796 35.554C229.56 35.0268 229.282 34.6752 228.964 34.48C228.829 34.3957 228.639 34.3109 228.413 34.2326L227.654 34.044V33.7316H235.321V34.0568C234.42 34.2199 233.751 34.5581 233.323 35.0655C232.888 35.5734 232.675 36.6015 232.675 38.1568L232.681 43.4936L241.702 35.9249C242.391 35.3651 242.785 34.9097 242.883 34.5515C242.812 34.2131 242.494 34.044 241.936 34.044V33.7316H252.208V34.0568C251.224 34.2458 250.549 34.6818 250.204 35.3522C249.854 36.029 249.68 36.9596 249.68 38.1568V55.3703C249.68 56.4899 249.868 57.3423 250.238 57.9216C250.614 58.4941 251.268 58.8716 252.208 59.0345V59.4249ZM264.432 35.7232C263.675 35.7232 262.967 35.7618 262.305 35.8465C261.651 35.931 261.016 36.0483 260.406 36.1981C259.29 36.465 258.305 36.9922 257.435 37.7731C256.565 38.5541 255.848 39.6406 255.263 41.0268L254.939 40.8706L256.858 33.1852C257.008 33.4842 257.487 33.686 258.299 33.7966L259.077 33.7316H274.069C274.389 33.7316 274.596 33.7511 274.7 33.7966C274.953 33.7966 275.135 33.7966 275.239 33.7843C275.348 33.7705 275.492 33.7255 275.667 33.6537C275.933 33.5366 276.165 33.3873 276.367 33.1855L278.286 40.871L277.891 41.0273C276.671 37.4936 273.643 35.7235 268.793 35.7235V55.0844C268.793 56.2299 268.908 57.0889 269.136 57.6615C269.363 58.2341 269.654 58.5989 270.01 58.748L270.582 58.9566L271.282 59.0349V59.4252H261.943V59.0349C262.702 59.0349 263.312 58.7808 263.759 58.28C264.206 57.7787 264.432 56.796 264.432 55.3319V35.7235V35.7232ZM287.741 41.0268C288.564 41.0268 289.122 41.0529 289.415 41.1115C289.669 41.1115 290.025 41.1115 290.478 41.1115C290.933 41.1115 291.257 41.1115 291.444 41.1115C291.763 41.1115 292.008 41.1046 292.179 41.0855C292.346 41.0662 292.624 41.0204 293.008 40.9617C293.715 40.8578 294.227 40.6428 294.545 40.3111C294.862 39.9791 295.019 39.4523 295.019 38.7296L295.343 38.5735L296.932 47.281L296.569 47.4305C296.191 45.9469 295.674 44.8926 295.019 44.2548C294.369 43.6237 293.539 43.2332 292.528 43.09C291.509 42.9404 289.92 42.8685 287.741 42.8685V54.6936C287.741 55.2794 287.806 55.7609 287.929 56.1451C288.046 56.5485 288.364 56.8996 288.884 57.1925C289.402 57.4854 290.206 57.6286 291.295 57.6286C291.686 57.6286 291.995 57.6163 292.223 57.5897C292.82 57.5897 293.366 57.5572 293.859 57.4921C294.35 57.4334 294.869 57.3162 295.414 57.1537C296.425 56.8609 297.457 56.4113 298.508 55.8129C300.408 54.7323 302.035 52.8387 303.391 50.1316L303.768 50.2097L300.499 59.9715C300.096 59.5548 299.591 59.3468 298.982 59.3468L298.105 59.4249H296.932H280.893V59.0345C282.58 59.0345 283.424 57.5897 283.424 54.7064V38.4629C283.424 37.0247 283.267 35.9704 282.949 35.3065C282.63 34.636 281.944 34.2199 280.893 34.0568V33.7316H297.71C297.925 33.7316 298.073 33.7511 298.164 33.7966C298.826 33.7252 299.331 33.5428 299.682 33.2629L301.433 41.1115L301.128 41.1766C300.785 40.2653 300.272 39.4455 299.591 38.7233C299.221 38.3586 298.851 38.0269 298.483 37.7339C298.105 37.4409 297.677 37.174 297.198 36.9335C296.31 36.4781 295.349 36.12 294.311 35.8533C294.162 35.8142 293.988 35.7752 293.792 35.7359C293.592 35.6971 293.294 35.6513 292.885 35.606C292.482 35.554 292.191 35.5214 292.002 35.5083C291.822 35.496 291.548 35.4889 291.178 35.4889C290.115 35.4889 289.336 35.6254 288.844 35.8989C288.351 36.1722 288.04 36.5042 287.924 36.8945C287.8 37.2915 287.741 37.8118 287.741 38.4563V41.0268ZM314.443 35.7232C313.684 35.7232 312.976 35.7618 312.314 35.8465C311.66 35.931 311.025 36.0483 310.415 36.1981C309.299 36.465 308.313 36.9922 307.445 37.7731C306.574 38.5541 305.855 39.6406 305.272 41.0268L304.946 40.8706L306.867 33.1852C307.017 33.4842 307.496 33.686 308.306 33.7966L309.084 33.7316H324.078C324.397 33.7316 324.606 33.7511 324.709 33.7966C324.962 33.7966 325.143 33.7966 325.246 33.7843C325.357 33.7705 325.501 33.7255 325.674 33.6537C325.941 33.5366 326.174 33.3873 326.375 33.1855L328.295 40.871L327.9 41.0273C326.68 37.4936 323.652 35.7235 318.801 35.7235V55.0844C318.801 56.2299 318.917 57.0889 319.144 57.6615C319.37 58.2341 319.663 58.5989 320.02 58.748L320.59 58.9566L321.29 59.0349V59.4252H311.951V59.0349C312.711 59.0349 313.321 58.7808 313.768 58.28C314.215 57.7787 314.443 56.796 314.443 55.3319V35.7235V35.7232Z" fill="#004515" stroke="#004515" stroke-width="0.244761" stroke-linejoin="round"/>
<path d="M91.8214 68.5309H324.134V70.1111H91.8214V68.5309Z" fill="url(#paint0_linear)"/>
<path fill-rule="evenodd" clip-rule="evenodd" d="M50.378 128L18.9801 3.18494L4.21704 3.2844L34.687 127.993L50.378 128V128Z" fill="#009035"/>
<path d="M46.161 127.976L14.7628 3.16071L0 3.26017L30.4699 127.969L46.161 127.976V127.976Z" fill="url(#paint1_linear)"/>
<path d="M54.2653 113.669L40.3354 56.768L67.5955 56.7031L54.2653 113.669Z" fill="url(#paint2_linear)"/>
<path d="M35.5688 38.8189L70.6045 38.9047L62.5799 3.38823L26.9059 3.34753L35.5688 38.8189Z" fill="url(#paint3_linear)"/>
<path fill-rule="evenodd" clip-rule="evenodd" d="M61.4092 128L91.2411 3.34778H86.283L56.4511 128H61.4092Z" fill="#009035"/>
<path d="M103.578 86.418C103.578 86.8285 103.624 87.1342 103.715 87.3349C103.811 87.5267 104.045 87.6226 104.419 87.6226V87.7633H101.466V87.6226C101.975 87.6226 102.229 87.1944 102.229 86.3377V83.2927C102.229 82.833 102.138 82.4762 101.955 82.2218C101.777 81.9675 101.521 81.8403 101.186 81.8403C101.017 81.8403 100.849 81.8694 100.684 81.9274C100.61 81.9541 100.53 81.9898 100.443 82.0345C100.36 82.0747 100.278 82.1237 100.195 82.1817C99.8781 82.4004 99.624 82.6948 99.4328 83.0652C99.2416 83.431 99.1461 83.837 99.1461 84.2831V86.418C99.1461 86.7437 99.2068 87.027 99.3285 87.268C99.4546 87.5044 99.6543 87.6226 99.9282 87.6226V87.7633H96.9821V87.6226C97.1602 87.6226 97.3037 87.5869 97.4123 87.5156C97.5209 87.4442 97.6013 87.3326 97.6535 87.1809C97.7491 86.8865 97.7968 86.5183 97.7968 86.0767V82.8443C97.7968 82.3892 97.76 82.0613 97.686 81.8606C97.6209 81.6509 97.5405 81.5192 97.4448 81.4657C97.3492 81.4077 97.195 81.3541 96.9821 81.3049V81.1845L98.8071 80.9905C98.9027 81.1199 98.983 81.3362 99.0483 81.6396C99.1134 81.943 99.1461 82.2152 99.1461 82.4562C100.093 81.3898 100.995 80.8566 101.851 80.8566C103.002 80.8566 103.578 81.5192 103.578 82.8443V86.418Z" fill="url(#paint4_linear)"/>
<path d="M107.385 81.5794V86.0231C107.385 86.4649 107.471 86.7527 107.645 86.8865C107.854 87.0471 108.193 87.152 108.662 87.201L109.157 87.1474C109.731 87.0537 110.194 86.7906 110.546 86.3578C110.898 85.9205 111.106 85.3874 111.171 84.7583L111.197 84.3635C111.197 83.962 111.13 83.5916 110.995 83.2524C110.865 82.9089 110.676 82.6145 110.428 82.3691C110.181 82.1237 109.876 81.9296 109.516 81.7869C109.438 81.7556 109.355 81.7289 109.268 81.7065C109.186 81.6842 109.09 81.6619 108.981 81.6396C108.877 81.6174 108.777 81.6017 108.682 81.5927C108.586 81.5839 108.477 81.5794 108.356 81.5794H107.385ZM107.411 87.7097V89.2556C107.411 90.0989 107.671 90.5205 108.193 90.5205V90.6543H105.221V90.5205C105.764 90.5205 106.035 90.0989 106.035 89.2556V82.6502C106.035 82.0657 105.983 81.6798 105.879 81.4924C105.775 81.3049 105.555 81.1845 105.221 81.131V80.9905H108.825C110.142 80.9905 111.098 81.3095 111.693 81.9475C111.988 82.2643 112.216 82.6301 112.377 83.0451C112.542 83.4555 112.625 83.904 112.625 84.3902C112.625 84.8943 112.555 85.345 112.416 85.7421C112.342 85.9474 112.249 86.1392 112.136 86.3176C112.027 86.4916 111.895 86.6568 111.738 86.8129C111.421 87.1207 111.004 87.3617 110.487 87.5357C109.974 87.7053 109.375 87.79 108.688 87.79C108.301 87.79 107.876 87.7633 107.411 87.7097Z" fill="url(#paint5_linear)"/>
<path d="M118.211 83.8281C117.198 84.0154 116.418 84.321 115.871 84.745C115.601 84.9547 115.391 85.1732 115.238 85.4008C115.091 85.6283 115.017 85.8625 115.017 86.1035C115.095 86.7326 115.486 87.0806 116.19 87.1474C116.525 87.1474 116.82 87.0784 117.077 86.9401C117.337 86.7973 117.559 86.592 117.741 86.3243C118.054 85.8336 118.211 85.0015 118.211 83.8281ZM118.211 83.2659C118.211 82.8286 118.169 82.4963 118.087 82.2687C118.009 82.0412 117.854 81.8783 117.624 81.7801C117.515 81.7356 117.376 81.6998 117.207 81.6731C117.037 81.6463 116.842 81.633 116.62 81.633C116.481 81.633 116.357 81.6419 116.249 81.6597C116.14 81.6776 116.014 81.7111 115.871 81.7601C115.732 81.8048 115.608 81.856 115.499 81.914C115.391 81.9675 115.265 82.0412 115.121 82.1349C114.635 82.4562 114.263 82.9023 114.007 83.4734L114.215 81.2247C114.328 81.3407 114.467 81.4143 114.632 81.4456C114.689 81.4456 114.758 81.4344 114.841 81.4121C114.923 81.3898 114.987 81.3719 115.03 81.3585C115.078 81.3407 115.162 81.3073 115.284 81.2582L115.754 81.0976L116.223 80.9704C116.553 80.8946 116.935 80.8566 117.37 80.8566C118.035 80.8566 118.532 80.9592 118.862 81.1645C119.193 81.3653 119.403 81.6218 119.495 81.934C119.59 82.2465 119.638 82.6257 119.638 83.0718V85.9964C119.638 86.4649 119.686 86.8061 119.781 87.0204C119.877 87.2301 119.99 87.375 120.12 87.4553C120.246 87.5178 120.405 87.5736 120.596 87.6226V87.7633H118.758C118.61 87.549 118.5 87.3416 118.426 87.1408C118.352 86.9401 118.315 86.7348 118.315 86.5251C118.089 86.9578 117.724 87.2925 117.22 87.5289C116.716 87.7609 116.192 87.877 115.649 87.877C115.197 87.877 114.795 87.8034 114.443 87.6561C114.091 87.5088 113.844 87.2925 113.7 87.0069C113.613 86.8418 113.55 86.6054 113.511 86.2976C113.511 85.9496 113.607 85.6239 113.798 85.3205C113.994 85.0127 114.289 84.7203 114.685 84.4438C115.002 84.2341 115.447 84.0332 116.021 83.8414C116.294 83.7477 116.609 83.654 116.966 83.5604C117.326 83.4667 117.741 83.3684 118.211 83.2659Z" fill="url(#paint6_linear)"/>
<path d="M124.122 81.6061L125.067 81.6262C125.154 81.6262 125.254 81.6352 125.367 81.6531C125.48 81.6663 125.615 81.6976 125.771 81.7468C125.98 81.8136 126.136 81.9029 126.241 82.0145C126.349 82.1215 126.404 82.2643 126.404 82.4427C126.404 82.6167 126.332 82.7975 126.188 82.9847C126.049 83.1677 125.856 83.3239 125.608 83.4533C125.387 83.5649 125.08 83.6943 124.689 83.8414L124.044 84.069L123.223 84.3635V81.6196L123.392 81.633H123.646H123.875L124.122 81.6061ZM124.709 87.2813L124.448 87.3014L124.24 87.3148H124.155C124.124 87.3148 124.088 87.3104 124.044 87.3014L123.927 87.2813L123.653 87.2211C123.562 87.1944 123.483 87.1474 123.418 87.0806C123.353 87.0136 123.301 86.9223 123.262 86.8061C123.236 86.6991 123.223 86.5876 123.223 86.4716V85.0127L125.061 84.3367C125.096 84.3635 125.13 84.3902 125.165 84.4169C125.204 84.4394 125.263 84.4727 125.341 84.5174C125.424 84.562 125.521 84.6356 125.634 84.7382L125.915 85.0127L126.156 85.2736C126.251 85.3942 126.321 85.5034 126.364 85.6015C126.399 85.6952 126.416 85.818 126.416 85.9697V86.1772C126.416 86.3064 126.406 86.4069 126.384 86.4782C126.362 86.5452 126.312 86.6166 126.234 86.6925C126.121 86.7995 126.012 86.891 125.908 86.9668C125.813 87.0248 125.689 87.085 125.537 87.1474C125.476 87.1699 125.413 87.19 125.348 87.2078C125.287 87.2255 125.222 87.2434 125.152 87.2612C125.048 87.2746 124.9 87.2813 124.709 87.2813ZM121.033 81.0306V81.1444C121.298 81.1444 121.504 81.2403 121.652 81.4322C121.8 81.624 121.874 81.9252 121.874 82.3356V86.4716C121.874 86.8464 121.793 87.132 121.632 87.3282C121.476 87.5245 121.285 87.6226 121.059 87.6226V87.7364L121.02 87.7633H125.765H125.928C126.002 87.7633 126.075 87.7633 126.149 87.7633C126.262 87.7498 126.354 87.7408 126.423 87.7364C126.492 87.7276 126.573 87.7163 126.664 87.7029C126.76 87.6852 126.868 87.6628 126.99 87.6361C127.116 87.6048 127.231 87.5558 127.336 87.4888L127.538 87.3349L127.766 87.1408C127.835 87.0784 127.898 87.0003 127.955 86.9066C128.037 86.7772 128.098 86.6456 128.137 86.5117C128.155 86.4493 128.168 86.3869 128.176 86.3243C128.185 86.2574 128.189 86.1748 128.189 86.0767C128.189 85.8848 128.15 85.7064 128.072 85.5413C127.994 85.3717 127.885 85.22 127.746 85.0862L127.388 84.7516C127.262 84.6401 127.129 84.5464 126.99 84.4705L126.586 84.2698L126.078 84.0154L126.241 83.9485C126.349 83.8994 126.543 83.7924 126.821 83.6273L127.238 83.3863C127.294 83.3462 127.39 83.2392 127.525 83.0652C127.633 82.9135 127.705 82.7885 127.74 82.6903C127.779 82.5878 127.798 82.4584 127.798 82.3022V82.2017C127.798 82.05 127.787 81.934 127.766 81.8538C127.748 81.7691 127.694 81.6776 127.603 81.5794L127.394 81.3585C127.307 81.2694 127.179 81.2002 127.01 81.151C126.84 81.0976 126.66 81.0597 126.469 81.0372L125.98 81.0039L124.943 81.0105C124.739 81.0105 124.424 81.0128 123.998 81.0172C123.577 81.0218 123.255 81.024 123.034 81.024L121.033 81.0306Z" fill="url(#paint7_linear)"/>
<path d="M128.776 84.4705C128.776 83.7388 128.937 83.1053 129.258 82.5699C129.58 82.03 130.023 81.6084 130.588 81.3049C130.87 81.1578 131.168 81.0463 131.481 80.9704C131.798 80.8946 132.133 80.8566 132.485 80.8566C132.971 80.8566 133.428 80.9258 133.853 81.0641C134.279 81.198 134.661 81.4054 135 81.6864C135.344 81.9675 135.613 82.3289 135.809 82.7706C136.004 83.2079 136.102 83.721 136.102 84.3099C136.102 85.0907 135.924 85.7488 135.568 86.2841C135.211 86.8151 134.742 87.2189 134.16 87.4956C133.582 87.7677 132.989 87.9037 132.38 87.9037C131.811 87.9037 131.248 87.7833 130.692 87.5423C130.14 87.3014 129.682 86.9222 129.317 86.4046C128.956 85.8826 128.776 85.2379 128.776 84.4705ZM134.57 84.4705C134.57 83.9441 134.49 83.4577 134.329 83.0116C134.173 82.5609 133.929 82.2017 133.599 81.934C133.269 81.6619 132.871 81.5259 132.406 81.5259C132.041 81.5259 131.7 81.6129 131.383 81.7869C131.07 81.9609 130.812 82.2419 130.607 82.6301C130.407 83.0182 130.308 83.5047 130.308 84.089C130.308 84.7494 130.399 85.3137 130.581 85.7823C130.768 86.2506 131.027 86.6098 131.357 86.8597C131.692 87.1051 132.059 87.2279 132.458 87.2279C132.832 87.2279 133.18 87.1229 133.501 86.9132C133.827 86.7035 134.086 86.3913 134.277 85.9763C134.472 85.5613 134.57 85.0595 134.57 84.4705Z" fill="url(#paint8_linear)"/>
<path d="M140.13 81.6061L141.075 81.6262C141.162 81.6262 141.262 81.6352 141.375 81.6531C141.488 81.6663 141.623 81.6976 141.779 81.7468C141.988 81.8136 142.144 81.9029 142.248 82.0145C142.357 82.1215 142.411 82.2643 142.411 82.4427C142.411 82.6167 142.34 82.7975 142.196 82.9847C142.057 83.1677 141.864 83.3239 141.616 83.4533C141.394 83.5649 141.088 83.6943 140.697 83.8414L140.052 84.069L139.23 84.3635V81.6196L139.4 81.633H139.654H139.882L140.13 81.6061ZM140.716 87.2813L140.456 87.3014L140.247 87.3148H140.163C140.132 87.3148 140.095 87.3104 140.052 87.3014L139.934 87.2813L139.661 87.2211C139.569 87.1944 139.491 87.1474 139.426 87.0806C139.361 87.0136 139.309 86.9223 139.27 86.8061C139.244 86.6991 139.23 86.5876 139.23 86.4716V85.0127L141.069 84.3367C141.103 84.3635 141.138 84.3902 141.173 84.4169C141.212 84.4394 141.271 84.4727 141.349 84.5174C141.431 84.562 141.529 84.6356 141.642 84.7382L141.922 85.0127L142.163 85.2736C142.259 85.3942 142.329 85.5034 142.372 85.6015C142.407 85.6952 142.424 85.818 142.424 85.9697V86.1772C142.424 86.3064 142.413 86.4069 142.392 86.4782C142.37 86.5452 142.32 86.6166 142.242 86.6925C142.129 86.7995 142.02 86.891 141.916 86.9668C141.82 87.0248 141.696 87.085 141.544 87.1474C141.483 87.1699 141.421 87.19 141.355 87.2078C141.294 87.2255 141.229 87.2434 141.16 87.2612C141.055 87.2746 140.908 87.2813 140.716 87.2813ZM137.041 81.0306V81.1444C137.306 81.1444 137.512 81.2403 137.66 81.4322C137.808 81.624 137.881 81.9252 137.881 82.3356V86.4716C137.881 86.8464 137.801 87.132 137.64 87.3282C137.484 87.5245 137.292 87.6226 137.067 87.6226V87.7364L137.027 87.7633H141.773H141.935C142.009 87.7633 142.083 87.7633 142.157 87.7633C142.27 87.7498 142.361 87.7408 142.431 87.7364C142.5 87.7276 142.581 87.7163 142.672 87.7029C142.767 87.6852 142.876 87.6628 142.998 87.6361C143.124 87.6048 143.239 87.5558 143.343 87.4888L143.545 87.3349L143.773 87.1408C143.843 87.0784 143.906 87.0003 143.962 86.9066C144.045 86.7772 144.106 86.6456 144.145 86.5117C144.162 86.4493 144.175 86.3869 144.184 86.3243C144.193 86.2574 144.197 86.1748 144.197 86.0767C144.197 85.8848 144.158 85.7064 144.08 85.5413C144.002 85.3717 143.893 85.22 143.754 85.0862L143.395 84.7516C143.269 84.6401 143.137 84.5464 142.998 84.4705L142.594 84.2698L142.085 84.0154L142.248 83.9485C142.357 83.8994 142.55 83.7924 142.828 83.6273L143.246 83.3863C143.302 83.3462 143.398 83.2392 143.532 83.0652C143.641 82.9135 143.713 82.7885 143.747 82.6903C143.787 82.5878 143.806 82.4584 143.806 82.3022V82.2017C143.806 82.05 143.795 81.934 143.773 81.8538C143.756 81.7691 143.702 81.6776 143.61 81.5794L143.402 81.3585C143.315 81.2694 143.187 81.2002 143.017 81.151C142.848 81.0976 142.668 81.0597 142.476 81.0372L141.988 81.0039L140.951 81.0105C140.747 81.0105 140.432 81.0128 140.006 81.0172C139.585 81.0218 139.263 81.024 139.041 81.024L137.041 81.0306Z" fill="url(#paint9_linear)"/>
<path d="M144.784 84.4705C144.784 83.7388 144.944 83.1053 145.266 82.5699C145.587 82.03 146.031 81.6084 146.596 81.3049C146.878 81.1578 147.176 81.0463 147.488 80.9704C147.806 80.8946 148.14 80.8566 148.492 80.8566C148.979 80.8566 149.435 80.9258 149.861 81.0641C150.287 81.198 150.669 81.4054 151.008 81.6864C151.351 81.9675 151.621 82.3289 151.816 82.7706C152.012 83.2079 152.11 83.721 152.11 84.3099C152.11 85.0907 151.931 85.7488 151.575 86.2841C151.219 86.8151 150.75 87.2189 150.167 87.4956C149.589 87.7677 148.996 87.9037 148.388 87.9037C147.819 87.9037 147.256 87.7833 146.7 87.5423C146.148 87.3014 145.69 86.9222 145.325 86.4046C144.964 85.8826 144.784 85.2379 144.784 84.4705ZM150.578 84.4705C150.578 83.9441 150.498 83.4577 150.337 83.0116C150.18 82.5609 149.937 82.2017 149.607 81.934C149.277 81.6619 148.879 81.5259 148.414 81.5259C148.049 81.5259 147.708 81.6129 147.391 81.7869C147.078 81.9609 146.819 82.2419 146.615 82.6301C146.415 83.0182 146.315 83.5047 146.315 84.089C146.315 84.7494 146.407 85.3137 146.589 85.7823C146.776 86.2506 147.034 86.6098 147.365 86.8597C147.699 87.1051 148.066 87.2279 148.466 87.2279C148.84 87.2279 149.188 87.1229 149.509 86.9132C149.835 86.7035 150.094 86.3913 150.285 85.9763C150.48 85.5613 150.578 85.0595 150.578 84.4705Z" fill="url(#paint10_linear)"/>
<path d="M158.295 86.3644C158.095 86.5608 157.884 86.7459 157.663 86.9199C157.442 87.094 157.217 87.2501 156.991 87.3884C156.544 87.665 156.092 87.8367 155.636 87.9037C154.437 87.9037 153.837 87.2768 153.837 86.0231V82.5699C153.837 82.1415 153.774 81.8293 153.648 81.633C153.522 81.4366 153.313 81.3184 153.022 81.2782V81.1845L155.186 80.9905V85.4343C155.186 86.4471 155.51 86.9534 156.157 86.9534C156.57 86.8731 156.935 86.7214 157.252 86.4983C157.57 86.2707 157.824 85.9719 158.016 85.6015C158.106 85.4186 158.175 85.2268 158.223 85.0259C158.272 84.8252 158.295 84.6133 158.295 84.3902V82.8443C158.295 82.6211 158.289 82.4339 158.275 82.2822C158.262 82.1259 158.238 81.9898 158.204 81.8738C158.151 81.6597 158.071 81.5146 157.963 81.4388C157.854 81.3629 157.703 81.3095 157.507 81.2782V81.1845L159.67 80.9905V86.418C159.67 87.2211 159.942 87.6226 160.486 87.6226V87.7632H158.55L158.452 87.395C158.4 87.1853 158.36 87.0025 158.335 86.8464C158.308 86.6857 158.295 86.5251 158.295 86.3644ZM156.783 79.5316L156.913 79.5181H157.011H157.096L157.219 79.5115L157.357 79.4712L157.643 79.3442L157.903 79.2035L157.995 79.1567L158.087 79.0697L157.924 79.0564C157.876 79.0564 157.826 79.043 157.774 79.0163C157.674 78.9715 157.598 78.9025 157.546 78.8088C157.502 78.7061 157.48 78.628 157.48 78.5744C157.48 78.5254 157.491 78.4697 157.513 78.4072C157.53 78.3358 157.56 78.2778 157.605 78.2332C157.647 78.1841 157.712 78.135 157.799 78.086C157.891 78.0368 157.981 78.0123 158.068 78.0123C158.102 78.0123 158.158 78.0235 158.237 78.0458C158.314 78.0591 158.384 78.086 158.445 78.1261C158.498 78.1528 158.551 78.2086 158.608 78.2935C158.668 78.3737 158.709 78.463 158.731 78.5612L158.752 78.7351C158.752 78.8288 158.727 78.927 158.679 79.0295C158.637 79.1277 158.57 79.2169 158.483 79.2972L158.262 79.478L158.053 79.5984L157.546 79.826L157.194 79.9665C157.063 80.0112 156.948 80.0335 156.848 80.0335H156.229C156.116 80.0335 155.975 80.0044 155.805 79.9464L155.512 79.8595C155.442 79.846 155.353 79.8125 155.245 79.759L154.958 79.5984C154.897 79.5717 154.834 79.5292 154.769 79.4712L154.593 79.2972C154.51 79.226 154.443 79.1345 154.391 79.0229C154.343 78.9113 154.319 78.8132 154.319 78.7283L154.339 78.5612C154.352 78.463 154.393 78.3693 154.463 78.28C154.554 78.1596 154.675 78.0793 154.828 78.039L155.01 78.0123C155.088 78.0123 155.18 78.039 155.284 78.0926C155.366 78.1327 155.425 78.1753 155.46 78.2198C155.495 78.2509 155.525 78.3091 155.551 78.3938C155.577 78.4741 155.59 78.5343 155.59 78.5744C155.59 78.628 155.571 78.6994 155.532 78.7887C155.479 78.8868 155.401 78.9627 155.297 79.0163C155.249 79.0385 155.19 79.0542 155.121 79.063L154.984 79.0697L155.088 79.1567L155.166 79.2035L155.414 79.3442L155.714 79.4712C155.805 79.5025 155.903 79.5181 156.007 79.5181L156.301 79.5382L156.496 79.5516L156.659 79.5449L156.783 79.5316Z" fill="url(#paint11_linear)"/>
<path d="M170.835 86.3644C170.635 86.5608 170.425 86.7459 170.203 86.9199C169.982 87.094 169.758 87.2501 169.532 87.3884C169.084 87.665 168.632 87.8367 168.176 87.9037C166.976 87.9037 166.377 87.2769 166.377 86.0231V82.5699C166.377 82.1415 166.314 81.8293 166.188 81.633C166.063 81.4366 165.854 81.3184 165.562 81.2782V81.1845L167.727 80.9905V85.4343C167.727 86.4471 168.049 86.9534 168.697 86.9534C169.11 86.8731 169.475 86.7214 169.792 86.4983C170.11 86.2707 170.364 85.9719 170.556 85.6015C170.646 85.4186 170.715 85.2268 170.764 85.026C170.812 84.8253 170.835 84.6133 170.835 84.3902V82.8443C170.835 82.6211 170.829 82.4339 170.816 82.2822C170.802 82.1259 170.779 81.9898 170.744 81.8738C170.692 81.6597 170.611 81.5146 170.504 81.4388C170.395 81.3629 170.243 81.3095 170.047 81.2782V81.1845L172.21 80.9905V86.418C172.21 87.2211 172.482 87.6226 173.026 87.6226L173.293 89.5099L173.176 89.53C173.08 89.2623 172.982 89.0347 172.882 88.8473L172.732 88.5463C172.672 88.4257 172.616 88.3388 172.569 88.2852C172.504 88.2049 172.435 88.1313 172.36 88.0643C172.291 88.0019 172.206 87.9417 172.106 87.8837C172.063 87.8614 172.025 87.8457 171.995 87.8367C171.97 87.8279 171.913 87.8122 171.826 87.79L171.474 87.7633H171.09L170.992 87.3951C170.94 87.1854 170.9 87.0025 170.875 86.8464C170.848 86.6857 170.835 86.5251 170.835 86.3644Z" fill="url(#paint12_linear)"/>
<path d="M175.358 84.089L178.988 83.0182C178.638 82.0233 178.072 81.5258 177.294 81.5258C176.872 81.5258 176.518 81.6485 176.232 81.8939C175.949 82.1349 175.733 82.4583 175.58 82.8643C175.433 83.2703 175.358 83.6786 175.358 84.089ZM175.444 84.6512C175.548 85.2045 175.734 85.6684 176.003 86.0433C176.278 86.418 176.599 86.7079 176.969 86.9132C177.13 86.9981 177.321 87.0761 177.542 87.1474C177.738 87.201 177.931 87.2278 178.122 87.2278C178.391 87.2278 178.645 87.1899 178.884 87.1141C179.127 87.0336 179.36 86.9176 179.583 86.7659C180.008 86.4804 180.332 86.0634 180.553 85.5145L180.69 85.5681L179.979 87.8501C179.854 87.7833 179.752 87.7454 179.673 87.7364C178.791 87.8479 178.181 87.9037 177.841 87.9037C177.185 87.9037 176.57 87.7743 175.997 87.5156C175.428 87.2568 174.959 86.8843 174.589 86.3979C174.22 85.9071 174.001 85.3249 173.931 84.6512L173.919 84.3768C173.919 83.7344 174.075 83.1476 174.388 82.6167C174.704 82.0813 175.137 81.6597 175.684 81.3518C176.232 81.0396 176.814 80.8833 177.432 80.8833C177.904 80.8833 178.348 80.9659 178.761 81.1309C178.977 81.2158 179.173 81.3206 179.347 81.4456C179.521 81.566 179.693 81.7199 179.862 81.9073C180.171 82.2508 180.401 82.6859 180.553 83.2123L175.444 84.6512Z" fill="url(#paint13_linear)"/>
<path d="M186.797 83.3128V82.8443C186.797 82.3982 186.762 82.0701 186.693 81.8606C186.628 81.6463 186.543 81.5058 186.438 81.4388C186.373 81.4077 186.222 81.3629 185.983 81.3049V81.1845L188.14 80.9905V86.3644C188.14 87.2032 188.412 87.6226 188.954 87.6226V87.7633H185.983V87.6226C186.078 87.6226 186.16 87.6116 186.23 87.5891C186.304 87.5624 186.373 87.5267 186.438 87.4821C186.547 87.4019 186.634 87.2546 186.699 87.0405C186.765 86.8217 186.797 86.5095 186.797 86.1035V84.0489H183.676V86.3644C183.676 87.2032 183.948 87.6226 184.49 87.6226V87.7633H181.519V87.6226C181.613 87.6226 181.696 87.6116 181.765 87.5891C181.839 87.5624 181.909 87.5267 181.974 87.4821C182.083 87.4019 182.17 87.2546 182.235 87.0405C182.299 86.8217 182.333 86.5095 182.333 86.1035V82.8443C182.333 82.3982 182.298 82.0701 182.228 81.8606C182.163 81.6463 182.078 81.5058 181.974 81.4388C181.909 81.4077 181.757 81.3629 181.519 81.3049V81.1845L183.676 80.9905V83.3128H186.797Z" fill="url(#paint14_linear)"/>
<path d="M194.221 81.0976L196.183 81.0172C196.3 81.0172 196.42 80.9927 196.541 80.9435L196.731 80.8566L197.115 82.9647L197.05 82.9915C196.959 82.7016 196.796 82.4471 196.56 82.2286L196.385 82.0613C196.325 82.0033 196.216 81.943 196.059 81.8806L195.707 81.7601C195.59 81.7199 195.468 81.6932 195.342 81.6798L195.016 81.6597C194.912 81.6597 194.778 81.6731 194.612 81.6998L194.403 81.7468C194.346 81.7601 194.282 81.7869 194.207 81.8271C194.135 81.8628 194.076 81.8961 194.032 81.9274C193.992 81.9587 193.951 82.0099 193.909 82.0813C193.83 82.1973 193.792 82.3245 193.792 82.4628L193.798 86.3644C193.798 87.2032 194.07 87.6226 194.612 87.6226V87.7633H191.641V87.6226C191.736 87.6226 191.818 87.6116 191.887 87.5891C191.962 87.5624 192.031 87.5267 192.096 87.4821C192.2 87.4063 192.29 87.259 192.363 87.0405C192.372 87.0092 192.384 86.9556 192.396 86.8797C192.414 86.8039 192.426 86.7371 192.436 86.6791L192.461 86.1972V82.4427C192.461 82.3312 192.459 82.2575 192.455 82.2218C192.455 82.1817 192.45 82.146 192.442 82.1148L192.421 82.1215C192.396 82.0323 192.366 81.972 192.331 81.9408L192.169 81.8203C192.102 81.7668 192.047 81.7333 191.998 81.7199L191.797 81.6798C191.671 81.6531 191.56 81.6396 191.464 81.6396L191.209 81.6597C190.936 81.6864 190.681 81.74 190.448 81.8203C190.274 81.8961 190.16 81.9519 190.108 81.9876C190.018 82.0412 189.92 82.1215 189.815 82.2286C189.594 82.4427 189.43 82.697 189.326 82.9915L189.261 82.9647L189.646 80.8566L189.913 80.9704C190.026 81.0017 190.119 81.0172 190.193 81.0172L192.09 81.0976H194.221Z" fill="url(#paint15_linear)"/>
<path d="M199.677 81.5794V86.0231C199.677 86.4649 199.764 86.7527 199.938 86.8865C200.146 87.0471 200.484 87.152 200.954 87.201L201.45 87.1474C202.022 87.0537 202.485 86.7906 202.838 86.3578C203.19 85.9205 203.399 85.3874 203.463 84.7583L203.489 84.3635C203.489 83.962 203.422 83.5916 203.288 83.2524C203.157 82.9089 202.967 82.6145 202.721 82.3691C202.473 82.1237 202.169 81.9296 201.807 81.7869C201.73 81.7556 201.648 81.7289 201.561 81.7065C201.477 81.6842 201.382 81.6619 201.273 81.6396C201.169 81.6174 201.069 81.6017 200.973 81.5927C200.878 81.5839 200.769 81.5794 200.647 81.5794H199.677ZM199.702 87.7097V89.2556C199.702 90.0989 199.963 90.5205 200.484 90.5205V90.6543H197.512V90.5205C198.055 90.5205 198.327 90.0989 198.327 89.2556V82.6502C198.327 82.0657 198.275 81.6798 198.171 81.4924C198.067 81.3049 197.847 81.1845 197.512 81.131V80.9905H201.117C202.433 80.9905 203.389 81.3095 203.985 81.9475C204.281 82.2643 204.508 82.6301 204.669 83.0451C204.834 83.4555 204.917 83.904 204.917 84.3902C204.917 84.8943 204.848 85.345 204.709 85.7421C204.635 85.9474 204.541 86.1392 204.427 86.3176C204.32 86.4916 204.187 86.6568 204.031 86.8129C203.713 87.1207 203.296 87.3617 202.779 87.5357C202.266 87.7053 201.667 87.79 200.981 87.79C200.594 87.79 200.167 87.7633 199.702 87.7097Z" fill="url(#paint16_linear)"/>
<path d="M216.759 87.7633H214.132V87.6226C214.442 87.6226 214.616 87.4464 214.654 87.094L214.57 86.8061L213.064 82.1148L211.318 86.9132L211.278 87.0806L211.266 87.201C211.266 87.4821 211.411 87.6226 211.702 87.6226V87.7633H209.753V87.6226C210.074 87.6226 210.333 87.3505 210.529 86.8061L212.328 82.2822L212.419 82.0747L212.457 81.9876L212.53 81.7735L212.595 81.4456C212.56 81.2359 212.454 81.131 212.276 81.131V80.9905H214.491V81.131C214.305 81.131 214.211 81.218 214.211 81.392C214.211 81.4767 214.23 81.5794 214.27 81.6998L214.322 81.8672L216.133 87.0337C216.29 87.4264 216.498 87.6226 216.759 87.6226V87.7633Z" fill="url(#paint17_linear)"/>
<path d="M222.548 86.3644C222.347 86.5608 222.137 86.7459 221.916 86.9199C221.693 87.094 221.47 87.2501 221.244 87.3884C220.797 87.665 220.345 87.8367 219.888 87.9037C218.689 87.9037 218.09 87.2769 218.09 86.0231V82.5699C218.09 82.1415 218.026 81.8293 217.9 81.633C217.774 81.4366 217.565 81.3184 217.274 81.2782V81.1845L219.438 80.9905V85.4343C219.438 86.4471 219.762 86.9534 220.41 86.9534C220.822 86.8731 221.187 86.7214 221.505 86.4983C221.822 86.2707 222.075 85.9719 222.267 85.6015C222.358 85.4186 222.428 85.2268 222.475 85.026C222.524 84.8253 222.548 84.6133 222.548 84.3902V82.8443C222.548 82.6211 222.541 82.4339 222.527 82.2822C222.515 82.1259 222.491 81.9898 222.456 81.8738C222.404 81.6597 222.323 81.5146 222.214 81.4388C222.107 81.3629 221.954 81.3095 221.759 81.2782V81.1845L223.923 80.9905V86.418C223.923 87.2211 224.195 87.6226 224.738 87.6226V87.7633H222.802L222.704 87.3951C222.652 87.1854 222.613 87.0025 222.586 86.8464C222.56 86.6857 222.548 86.5251 222.548 86.3644Z" fill="url(#paint18_linear)"/>
<path d="M230.811 86.3644C230.612 86.5608 230.401 86.7459 230.179 86.9199C229.958 87.094 229.734 87.2501 229.508 87.3884C229.06 87.665 228.608 87.8367 228.153 87.9037C226.954 87.9037 226.353 87.2769 226.353 86.0231V82.5699C226.353 82.1415 226.29 81.8293 226.165 81.633C226.039 81.4366 225.83 81.3184 225.539 81.2782V81.1845L227.703 80.9905V85.4343C227.703 86.4471 228.027 86.9534 228.675 86.9534C229.087 86.8731 229.452 86.7214 229.768 86.4983C230.086 86.2707 230.341 85.9719 230.532 85.6015C230.623 85.4186 230.693 85.2268 230.74 85.026C230.788 84.8253 230.811 84.6133 230.811 84.3902V82.8443C230.811 82.6211 230.805 82.4339 230.793 82.2822C230.78 82.1259 230.756 81.9898 230.721 81.8738C230.669 81.6597 230.589 81.5146 230.48 81.4388C230.371 81.3629 230.219 81.3095 230.023 81.2782V81.1845L232.188 80.9905V86.418C232.188 87.2211 232.458 87.6226 233.002 87.6226L233.269 89.5099L233.152 89.53C233.056 89.2623 232.959 89.0347 232.858 88.8473L232.708 88.5463C232.648 88.4257 232.594 88.3388 232.545 88.2852C232.48 88.2049 232.411 88.1313 232.337 88.0643C232.267 88.0019 232.183 87.9417 232.084 87.8837C232.039 87.8614 232.003 87.8457 231.971 87.8367C231.946 87.8279 231.889 87.8122 231.802 87.79L231.45 87.7633H231.066L230.968 87.3951C230.916 87.1854 230.878 87.0025 230.851 86.8464C230.826 86.6857 230.811 86.5251 230.811 86.3644Z" fill="url(#paint19_linear)"/>
<path d="M235.336 84.089L238.966 83.0182C238.614 82.0233 238.05 81.5258 237.27 81.5258C236.85 81.5258 236.496 81.6485 236.208 81.8939C235.926 82.1349 235.709 82.4583 235.557 82.8643C235.409 83.2703 235.336 83.6786 235.336 84.089ZM235.42 84.6512C235.524 85.2045 235.711 85.6684 235.981 86.0433C236.254 86.418 236.577 86.7079 236.945 86.9132C237.106 86.9981 237.297 87.0761 237.519 87.1474C237.715 87.201 237.907 87.2278 238.099 87.2278C238.369 87.2278 238.623 87.1899 238.862 87.1141C239.105 87.0336 239.338 86.9176 239.559 86.7659C239.986 86.4804 240.308 86.0634 240.531 85.5145L240.667 85.5681L239.957 87.8501C239.831 87.7833 239.728 87.7454 239.651 87.7364C238.769 87.8479 238.157 87.9037 237.819 87.9037C237.163 87.9037 236.548 87.7743 235.975 87.5156C235.406 87.2568 234.936 86.8843 234.566 86.3979C234.197 85.9071 233.977 85.3249 233.907 84.6512L233.895 84.3768C233.895 83.7344 234.051 83.1476 234.364 82.6167C234.682 82.0813 235.113 81.6597 235.662 81.3518C236.208 81.0396 236.792 80.8833 237.408 80.8833C237.882 80.8833 238.325 80.9659 238.737 81.1309C238.955 81.2158 239.151 81.3206 239.325 81.4456C239.499 81.566 239.669 81.7199 239.839 81.9073C240.148 82.2508 240.377 82.6859 240.531 83.2123L235.42 84.6512Z" fill="url(#paint20_linear)"/>
<path d="M246.775 83.3128V82.8443C246.775 82.3982 246.74 82.0701 246.67 81.8606C246.604 81.6463 246.52 81.5058 246.416 81.4388C246.351 81.4077 246.198 81.3629 245.959 81.3049V81.1845L248.116 80.9905V86.3644C248.116 87.2032 248.388 87.6226 248.932 87.6226V87.7633H245.959V87.6226C246.056 87.6226 246.138 87.6116 246.207 87.5891C246.282 87.5624 246.351 87.5267 246.416 87.4821C246.525 87.4019 246.61 87.2546 246.677 87.0405C246.742 86.8217 246.775 86.5095 246.775 86.1035V84.0489H243.652V86.3644C243.652 87.2032 243.924 87.6226 244.467 87.6226V87.7633H241.495V87.6226C241.59 87.6226 241.673 87.6116 241.743 87.5891C241.816 87.5624 241.885 87.5267 241.951 87.4821C242.059 87.4019 242.146 87.2546 242.212 87.0405C242.277 86.8217 242.309 86.5095 242.309 86.1035V82.8443C242.309 82.3982 242.274 82.0701 242.206 81.8606C242.14 81.6463 242.056 81.5058 241.951 81.4388C241.885 81.4077 241.733 81.3629 241.495 81.3049V81.1845L243.652 80.9905V83.3128H246.775Z" fill="url(#paint21_linear)"/>
<path d="M252.869 83.3863C252.786 83.422 252.632 83.4734 252.406 83.5402L252.145 83.6072L252.132 83.7545L252.145 83.8482L252.412 83.9351C252.486 83.9574 252.557 83.9843 252.627 84.0154C252.701 84.0423 252.788 84.0802 252.888 84.1292C253.036 84.2006 253.161 84.2652 253.265 84.3232C253.37 84.3768 253.45 84.4237 253.507 84.4639C253.624 84.5353 253.717 84.6111 253.787 84.6914C253.918 84.8431 254.018 85.035 254.087 85.2669C254.122 85.3874 254.149 85.5033 254.166 85.6149C254.183 85.7221 254.191 85.8491 254.191 85.9964C254.191 86.3891 254.006 86.6857 253.637 86.8865C253.45 86.9847 253.248 87.0672 253.031 87.1342C252.818 87.1966 252.613 87.2279 252.412 87.2279C252.213 87.2279 252.018 87.2054 251.832 87.1609C251.75 87.1386 251.656 87.1095 251.552 87.074C251.448 87.0382 251.345 86.9957 251.246 86.9467C250.885 86.7816 250.572 86.5296 250.307 86.1904C250.041 85.8469 249.877 85.4343 249.812 84.9523L249.708 84.9792L249.812 87.6762C249.92 87.5513 250.04 87.4888 250.169 87.4888L250.384 87.5088L250.639 87.5825L250.881 87.6495C251.159 87.7207 251.443 87.7765 251.734 87.8167C252.025 87.857 252.306 87.877 252.575 87.877C253.039 87.877 253.502 87.7966 253.964 87.636C254.428 87.4709 254.808 87.2122 255.103 86.8597C255.403 86.5073 255.554 86.0857 255.554 85.5948C255.554 85.3539 255.509 85.1219 255.422 84.8989C255.337 84.6758 255.215 84.4928 255.059 84.3501C254.903 84.2072 254.754 84.0958 254.615 84.0154C254.481 83.9351 254.315 83.8593 254.12 83.7878L253.897 83.7276L253.716 83.7076L253.526 83.7143L253.455 83.7076L253.787 83.6473C254.044 83.5938 254.245 83.5336 254.394 83.4667C254.59 83.3819 254.756 83.2637 254.895 83.112C255.056 82.9336 255.136 82.7395 255.136 82.5298C255.136 82.0613 254.915 81.6641 254.471 81.3385C254.029 81.0083 253.409 80.8432 252.614 80.8432C252.413 80.8432 252.236 80.8566 252.08 80.8833L251.329 81.024L250.985 81.0908C250.881 81.1087 250.795 81.1221 250.73 81.131C250.67 81.14 250.609 81.1444 250.549 81.1444C250.47 81.131 250.395 81.1153 250.326 81.0976C250.256 81.0798 250.201 81.0573 250.157 81.0306L250.052 83.1455L250.157 83.1722C250.274 82.6279 250.555 82.2152 250.997 81.934C251.445 81.6531 251.931 81.5124 252.458 81.5124C252.788 81.5124 253.079 81.5726 253.332 81.6932C253.588 81.8136 253.741 82.0189 253.793 82.3089C253.793 82.3892 253.79 82.4562 253.78 82.5097C253.776 82.5587 253.768 82.5989 253.755 82.6301C253.724 82.755 253.651 82.8733 253.532 82.9847C253.438 83.083 253.306 83.1744 253.142 83.2592L252.869 83.3863Z" fill="url(#paint22_linear)"/>
<path d="M261.681 86.3644C261.48 86.5608 261.27 86.7459 261.048 86.9199C260.826 87.094 260.603 87.2501 260.377 87.3884C259.93 87.665 259.478 87.8367 259.021 87.9037C257.821 87.9037 257.222 87.2769 257.222 86.0231V82.5699C257.222 82.1415 257.159 81.8293 257.033 81.633C256.906 81.4366 256.698 81.3184 256.407 81.2782V81.1845L258.572 80.9905V85.4343C258.572 86.4471 258.894 86.9534 259.542 86.9534C259.955 86.8731 260.32 86.7214 260.638 86.4983C260.955 86.2707 261.208 85.9719 261.399 85.6015C261.491 85.4186 261.561 85.2268 261.608 85.026C261.657 84.8253 261.681 84.6133 261.681 84.3902V82.8443C261.681 82.6211 261.674 82.4339 261.66 82.2822C261.647 82.1259 261.624 81.9898 261.589 81.8738C261.537 81.6597 261.456 81.5146 261.347 81.4388C261.24 81.3629 261.086 81.3095 260.892 81.2782V81.1845L263.056 80.9905V86.418C263.056 87.2211 263.327 87.6226 263.871 87.6226V87.7633H261.935L261.837 87.3951C261.785 87.1854 261.745 87.0025 261.72 86.8464C261.693 86.6857 261.681 86.5251 261.681 86.3644Z" fill="url(#paint23_linear)"/>
<path d="M266.81 81.5794V86.0231C266.81 86.4649 266.897 86.7527 267.071 86.8865C267.28 87.0471 267.618 87.152 268.087 87.201L268.582 87.1474C269.156 87.0537 269.619 86.7906 269.971 86.3578C270.324 85.9205 270.532 85.3874 270.597 84.7583L270.622 84.3635C270.622 83.962 270.556 83.5916 270.42 83.2524C270.29 82.9089 270.101 82.6145 269.854 82.3691C269.606 82.1237 269.301 81.9296 268.941 81.7869C268.863 81.7556 268.78 81.7289 268.693 81.7065C268.61 81.6842 268.516 81.6619 268.407 81.6396C268.302 81.6174 268.203 81.6017 268.106 81.5927C268.012 81.5839 267.902 81.5794 267.781 81.5794H266.81ZM266.836 87.7097V89.2556C266.836 90.0989 267.096 90.5205 267.618 90.5205V90.6543H264.645V90.5205C265.189 90.5205 265.461 90.0989 265.461 89.2556V82.6502C265.461 82.0657 265.409 81.6798 265.304 81.4924C265.2 81.3049 264.98 81.1845 264.645 81.131V80.9905H268.25C269.567 80.9905 270.523 81.3095 271.119 81.9475C271.414 82.2643 271.642 82.6301 271.803 83.0451C271.967 83.4555 272.049 83.904 272.049 84.3902C272.049 84.8943 271.98 85.345 271.841 85.7421C271.768 85.9474 271.675 86.1392 271.561 86.3176C271.452 86.4916 271.321 86.6568 271.164 86.8129C270.847 87.1207 270.429 87.3617 269.913 87.5357C269.399 87.7053 268.8 87.79 268.113 87.79C267.727 87.79 267.3 87.7633 266.836 87.7097Z" fill="url(#paint24_linear)"/>
<path d="M272.963 84.4705C272.963 83.7388 273.124 83.1053 273.445 82.5699C273.767 82.03 274.21 81.6084 274.774 81.3049C275.057 81.1578 275.354 81.0463 275.667 80.9704C275.984 80.8946 276.319 80.8566 276.672 80.8566C277.159 80.8566 277.614 80.9258 278.04 81.0641C278.466 81.198 278.848 81.4054 279.188 81.6864C279.531 81.9675 279.799 82.3289 279.995 82.7706C280.191 83.2079 280.289 83.721 280.289 84.3099C280.289 85.0907 280.111 85.7488 279.754 86.2841C279.398 86.8151 278.929 87.2189 278.346 87.4956C277.769 87.7677 277.176 87.9037 276.568 87.9037C275.997 87.9037 275.434 87.7833 274.878 87.5423C274.327 87.3014 273.868 86.9222 273.503 86.4046C273.143 85.8826 272.963 85.2379 272.963 84.4705ZM278.756 84.4705C278.756 83.9441 278.676 83.4577 278.516 83.0116C278.36 82.5609 278.116 82.2017 277.786 81.934C277.456 81.6619 277.058 81.5259 276.593 81.5259C276.228 81.5259 275.886 81.6129 275.57 81.7869C275.257 81.9609 274.998 82.2419 274.794 82.6301C274.594 83.0182 274.494 83.5047 274.494 84.089C274.494 84.7494 274.586 85.3137 274.768 85.7823C274.956 86.2506 275.213 86.6098 275.544 86.8597C275.879 87.1051 276.245 87.2279 276.645 87.2279C277.02 87.2279 277.366 87.1229 277.688 86.9132C278.014 86.7035 278.273 86.3913 278.464 85.9763C278.658 85.5613 278.756 85.0595 278.756 84.4705Z" fill="url(#paint25_linear)"/>
<path d="M284.316 81.6061L285.261 81.6262C285.348 81.6262 285.449 81.6352 285.561 81.6531C285.675 81.6663 285.81 81.6976 285.966 81.7468C286.175 81.8136 286.331 81.9029 286.435 82.0145C286.543 82.1215 286.598 82.2643 286.598 82.4427C286.598 82.6167 286.525 82.7975 286.383 82.9847C286.244 83.1677 286.05 83.3239 285.803 83.4533C285.58 83.5649 285.275 83.6943 284.883 83.8414L284.239 84.069L283.417 84.3635V81.6196L283.586 81.633H283.84H284.07L284.316 81.6061ZM284.902 87.2813L284.643 87.3014L284.435 87.3148H284.349C284.319 87.3148 284.281 87.3104 284.239 87.3014L284.122 87.2813L283.847 87.2211C283.757 87.1944 283.678 87.1474 283.613 87.0806C283.548 87.0136 283.496 86.9223 283.456 86.8061C283.43 86.6991 283.417 86.5876 283.417 86.4716V85.0127L285.255 84.3367C285.29 84.3635 285.324 84.3902 285.359 84.4169C285.399 84.4394 285.457 84.4727 285.536 84.5174C285.618 84.562 285.716 84.6356 285.829 84.7382L286.108 85.0127L286.35 85.2736C286.446 85.3942 286.516 85.5034 286.559 85.6015C286.593 85.6952 286.611 85.818 286.611 85.9697V86.1772C286.611 86.3064 286.6 86.4069 286.578 86.4782C286.557 86.5452 286.507 86.6166 286.429 86.6925C286.315 86.7995 286.206 86.891 286.102 86.9668C286.007 87.0248 285.884 87.085 285.731 87.1474C285.67 87.1699 285.607 87.19 285.542 87.2078C285.481 87.2255 285.416 87.2434 285.346 87.2612C285.242 87.2746 285.094 87.2813 284.902 87.2813ZM281.227 81.0306V81.1444C281.492 81.1444 281.699 81.2403 281.846 81.4322C281.995 81.624 282.067 81.9252 282.067 82.3356V86.4716C282.067 86.8464 281.988 87.132 281.827 87.3282C281.671 87.5245 281.479 87.6226 281.253 87.6226V87.7364L281.214 87.7633H285.96H286.122C286.195 87.7633 286.269 87.7633 286.344 87.7633C286.456 87.7498 286.548 87.7408 286.617 87.7364C286.687 87.7276 286.767 87.7163 286.859 87.7029C286.954 87.6852 287.063 87.6628 287.184 87.6361C287.311 87.6048 287.426 87.5558 287.531 87.4888L287.731 87.3349L287.96 87.1408C288.03 87.0784 288.093 87.0003 288.148 86.9066C288.232 86.7772 288.292 86.6456 288.332 86.5117C288.349 86.4493 288.362 86.3869 288.371 86.3243C288.379 86.2574 288.384 86.1748 288.384 86.0767C288.384 85.8848 288.344 85.7064 288.267 85.5413C288.188 85.3717 288.079 85.22 287.94 85.0862L287.583 84.7516C287.456 84.6401 287.324 84.5464 287.184 84.4705L286.78 84.2698L286.273 84.0154L286.435 83.9485C286.543 83.8994 286.737 83.7924 287.015 83.6273L287.433 83.3863C287.488 83.3462 287.584 83.2392 287.719 83.0652C287.828 82.9135 287.899 82.7885 287.934 82.6903C287.973 82.5878 287.992 82.4584 287.992 82.3022V82.2017C287.992 82.05 287.983 81.934 287.96 81.8538C287.943 81.7691 287.888 81.6776 287.798 81.5794L287.589 81.3585C287.502 81.2694 287.374 81.2002 287.203 81.151C287.034 81.0976 286.854 81.0597 286.663 81.0372L286.175 81.0039L285.138 81.0105C284.934 81.0105 284.618 81.0128 284.193 81.0172C283.771 81.0218 283.45 81.024 283.229 81.024L281.227 81.0306Z" fill="url(#paint26_linear)"/>
<path d="M293.643 83.8281C292.63 84.0154 291.851 84.321 291.304 84.745C291.034 84.9547 290.824 85.1732 290.671 85.4008C290.524 85.6283 290.449 85.8625 290.449 86.1035C290.528 86.7326 290.919 87.0806 291.624 87.1474C291.957 87.1474 292.253 87.0784 292.509 86.9401C292.769 86.7973 292.992 86.592 293.174 86.3243C293.487 85.8336 293.643 85.0015 293.643 83.8281ZM293.643 83.2659C293.643 82.8286 293.602 82.4963 293.52 82.2687C293.441 82.0412 293.288 81.8783 293.057 81.7801C292.948 81.7356 292.809 81.6998 292.64 81.6731C292.471 81.6463 292.275 81.633 292.054 81.633C291.914 81.633 291.79 81.6419 291.682 81.6597C291.573 81.6776 291.447 81.7111 291.304 81.7601C291.165 81.8048 291.041 81.856 290.931 81.914C290.824 81.9675 290.698 82.0412 290.554 82.1349C290.067 82.4562 289.696 82.9023 289.44 83.4734L289.648 81.2247C289.76 81.3407 289.899 81.4143 290.065 81.4456C290.122 81.4456 290.192 81.4344 290.274 81.4121C290.356 81.3898 290.419 81.3719 290.462 81.3585C290.511 81.3407 290.595 81.3073 290.717 81.2582L291.186 81.0976L291.655 80.9704C291.986 80.8946 292.368 80.8566 292.803 80.8566C293.468 80.8566 293.966 80.9592 294.296 81.1645C294.626 81.3653 294.837 81.6218 294.928 81.934C295.023 82.2465 295.07 82.6257 295.07 83.0718V85.9964C295.07 86.4649 295.119 86.8061 295.214 87.0204C295.311 87.2301 295.423 87.375 295.554 87.4553C295.679 87.5178 295.838 87.5736 296.03 87.6226V87.7633H294.192C294.043 87.549 293.933 87.3416 293.858 87.1408C293.784 86.9401 293.748 86.7348 293.748 86.5251C293.522 86.9578 293.157 87.2925 292.652 87.5289C292.148 87.7609 291.625 87.877 291.082 87.877C290.63 87.877 290.228 87.8034 289.876 87.6561C289.525 87.5088 289.277 87.2925 289.133 87.0069C289.046 86.8418 288.983 86.6054 288.945 86.2976C288.945 85.9496 289.04 85.6239 289.231 85.3205C289.427 85.0127 289.722 84.7203 290.118 84.4438C290.435 84.2341 290.879 84.0332 291.453 83.8414C291.728 83.7477 292.042 83.654 292.398 83.5604C292.76 83.4667 293.174 83.3684 293.643 83.2659Z" fill="url(#paint27_linear)"/>
<path d="M301.667 83.3128V82.8443C301.667 82.3982 301.632 82.0701 301.563 81.8606C301.498 81.6463 301.412 81.5058 301.308 81.4388C301.243 81.4077 301.092 81.3629 300.853 81.3049V81.1845L303.01 80.9905V86.3644C303.01 87.2032 303.282 87.6226 303.824 87.6226V87.7633H300.853V87.6226C300.948 87.6226 301.03 87.6116 301.099 87.5891C301.174 87.5624 301.243 87.5267 301.308 87.4821C301.417 87.4019 301.504 87.2546 301.569 87.0405C301.634 86.8217 301.667 86.5095 301.667 86.1035V84.0489H298.546V86.3644C298.546 87.2032 298.816 87.6226 299.359 87.6226V87.7633H296.387V87.6226C296.483 87.6226 296.565 87.6116 296.635 87.5891C296.709 87.5624 296.779 87.5267 296.844 87.4821C296.953 87.4019 297.04 87.2546 297.104 87.0405C297.169 86.8217 297.202 86.5095 297.202 86.1035V82.8443C297.202 82.3982 297.168 82.0701 297.098 81.8606C297.033 81.6463 296.948 81.5058 296.844 81.4388C296.779 81.4077 296.627 81.3629 296.387 81.3049V81.1845L298.546 80.9905V83.3128H301.667Z" fill="url(#paint28_linear)"/>
<path d="M309.899 86.3644C309.7 86.5608 309.488 86.7459 309.267 86.9199C309.046 87.094 308.821 87.2501 308.595 87.3884C308.148 87.665 307.696 87.8367 307.239 87.9037C306.04 87.9037 305.441 87.2769 305.441 86.0231V82.5699C305.441 82.1415 305.377 81.8293 305.251 81.633C305.126 81.4366 304.918 81.3184 304.625 81.2782V81.1845L306.79 80.9905V85.4343C306.79 86.4471 307.114 86.9534 307.761 86.9534C308.173 86.8731 308.538 86.7214 308.856 86.4983C309.174 86.2707 309.428 85.9719 309.619 85.6015C309.709 85.4186 309.779 85.2268 309.828 85.026C309.875 84.8253 309.899 84.6133 309.899 84.3902V82.8443C309.899 82.6211 309.893 82.4339 309.88 82.2822C309.866 82.1259 309.842 81.9898 309.807 81.8738C309.755 81.6597 309.674 81.5146 309.567 81.4388C309.458 81.3629 309.306 81.3095 309.11 81.2782V81.1845L311.274 80.9905V86.418C311.274 87.2211 311.546 87.6226 312.089 87.6226V87.7633H310.153L310.055 87.3951C310.003 87.1854 309.964 87.0025 309.938 86.8464C309.912 86.6857 309.899 86.5251 309.899 86.3644Z" fill="url(#paint29_linear)"/>
<path d="M316.75 81.6062L315.797 81.6262C315.68 81.6262 315.569 81.6352 315.465 81.6531C315.361 81.6709 315.239 81.7021 315.1 81.7468C314.891 81.8136 314.733 81.9029 314.624 82.0145C314.52 82.1215 314.468 82.2643 314.468 82.4427C314.468 82.6211 314.537 82.7997 314.676 82.9781C314.815 83.1565 315.013 83.3172 315.269 83.4599C315.395 83.5225 315.527 83.5827 315.661 83.6407C315.8 83.6987 315.963 83.7611 316.149 83.8281L316.781 84.0489L317.649 84.3635L317.628 81.5995L317.434 81.6196L317.127 81.6262L316.75 81.6062ZM319.812 81.0306V81.1444C319.569 81.1444 319.372 81.2403 319.22 81.4322C319.071 81.6196 318.997 81.9208 318.997 82.3356V86.4716C318.997 86.8418 319.076 87.1274 319.232 87.3282C319.389 87.5245 319.582 87.6226 319.812 87.6226V87.7633H316.834V87.6226C317.377 87.6226 317.649 87.2389 317.649 86.4716V85.0127L315.967 84.4504L315.934 84.504L315.993 84.4304L315.98 84.4571L315.895 84.5776C315.773 84.7426 315.667 84.9011 315.576 85.0528L315.283 85.5547L315.06 85.9697C314.943 86.1927 314.86 86.369 314.807 86.4983C314.698 86.7304 314.643 86.9468 314.643 87.1475C314.643 87.3796 314.792 87.5379 315.087 87.6226V87.7633H312.246V87.6226C312.371 87.6226 312.484 87.5847 312.584 87.5089C312.688 87.433 312.774 87.3439 312.838 87.2412L313.06 86.8263C313.161 86.6032 313.268 86.3779 313.385 86.1503C313.507 85.9183 313.651 85.6663 313.817 85.3942L314.084 84.9591L314.265 84.6244C314.3 84.5486 314.329 84.4906 314.351 84.4504C314.376 84.4059 314.398 84.3724 314.416 84.3501L314.63 84.0154L314.37 83.895C314.27 83.8458 314.167 83.7924 314.063 83.7344C313.959 83.6764 313.851 83.6116 313.738 83.5402C313.516 83.4019 313.371 83.2928 313.301 83.2123L313.099 82.9446C312.982 82.7975 312.903 82.6659 312.865 82.5499C312.826 82.4293 312.805 82.3111 312.805 82.1951C312.805 82.039 312.819 81.9118 312.845 81.8136C312.872 81.7111 312.935 81.6084 313.034 81.5058C313.151 81.3764 313.26 81.2827 313.36 81.2247C313.464 81.1667 313.594 81.1177 313.75 81.0776L314.115 81.0106L314.397 80.9971L314.657 81.0039H314.891H316.489L318.208 81.0172L319.812 81.0306Z" fill="url(#paint30_linear)"/>
<path fill-rule="evenodd" clip-rule="evenodd" d="M341.502 24C344.404 24 346.88 22.978 348.929 20.9283C350.978 18.8795 352 16.4039 352 13.4974C352 10.5958 350.978 8.12031 348.929 6.07064C346.88 4.02177 344.404 3 341.502 3C338.596 3 336.122 4.02177 334.071 6.07064C332.022 8.12031 331 10.5958 331 13.4974C331 16.3945 332.022 18.8693 334.071 20.9191C336.122 22.973 338.596 24 341.502 24ZM341.502 23.3021C338.793 23.3021 336.483 22.343 334.571 20.4294C332.658 18.5155 331.698 16.205 331.698 13.4974C331.698 10.7939 332.658 8.48325 334.571 6.56969C336.483 4.6568 338.793 3.697 341.502 3.697C344.207 3.697 346.518 4.6568 348.429 6.56969C350.343 8.48325 351.302 10.7939 351.302 13.4974C351.302 16.205 350.343 18.5155 348.429 20.4294C346.518 22.343 344.207 23.3021 341.502 23.3021ZM341.502 4.3899L340.267 6.84593H340.975V12.5911L338.451 11.1331L338.79 10.5228L336.063 10.3629L337.571 12.6498L337.923 12.0393L340.975 13.7975V15.0769H342.026V14.4078L342.564 14.7233L343.092 13.812L342.026 13.2015V6.84593H342.724L341.502 4.3899ZM349.49 13.982H350.455V13.0179H349.49V13.982ZM333.525 13.982V13.0179H332.56V13.982H333.525ZM341.982 21.4613H341.018V22.4255H341.982V21.4613ZM348.654 9.92685L349.49 9.44303L349.006 8.60481L348.174 9.08943L348.654 9.92685ZM334.842 17.901L334.362 17.0627L333.525 17.5474L334.008 18.3805L334.842 17.901ZM337.923 6.33754L337.443 5.51374L336.606 5.99327L337.085 6.83149L337.923 6.33754ZM345.901 20.1581L345.063 20.6377L345.548 21.4757L346.381 20.9913L345.901 20.1581ZM345.916 6.81706L346.395 5.99327L345.558 5.51374L345.077 6.33754L345.916 6.81706ZM337.923 20.6377L337.1 20.1581L336.619 20.9913L337.443 21.4757L337.923 20.6377ZM334.817 9.08943L333.994 8.60481L333.509 9.44303L334.333 9.92685L334.817 9.08943ZM348.638 17.0627L348.158 17.901L348.992 18.3805L349.476 17.5474L348.638 17.0627Z" fill="#004515"/>
</g>
<defs>
<linearGradient id="paint0_linear" x1="91.8214" y1="68.5309" x2="324.134" y2="68.5309" gradientUnits="userSpaceOnUse">
<stop stop-color="#004515"/>
<stop offset="0.24" stop-color="#004515"/>
<stop offset="0.6" stop-color="#007E39"/>
<stop offset="1" stop-color="#007E39"/>
</linearGradient>
<linearGradient id="paint1_linear" x1="295.856" y1="-708.441" x2="426.655" y2="-706.048" gradientUnits="userSpaceOnUse">
<stop stop-color="#00320E"/>
<stop offset="0.38" stop-color="#004515"/>
<stop offset="1" stop-color="#007E39"/>
</linearGradient>
<linearGradient id="paint2_linear" x1="40.3354" y1="56.7031" x2="67.5955" y2="56.7031" gradientUnits="userSpaceOnUse">
<stop stop-color="#004515"/>
<stop offset="0.38" stop-color="#004515"/>
<stop offset="1" stop-color="#007E39"/>
</linearGradient>
<linearGradient id="paint3_linear" x1="26.9059" y1="3.34753" x2="70.6045" y2="3.34753" gradientUnits="userSpaceOnUse">
<stop stop-color="#004515"/>
<stop offset="0.38" stop-color="#004515"/>
<stop offset="1" stop-color="#007E39"/>
</linearGradient>
<linearGradient id="paint4_linear" x1="101.545" y1="87.7633" x2="415.251" y2="78.0126" gradientUnits="userSpaceOnUse">
<stop offset="0.47899" stop-color="#004515"/>
<stop offset="1" stop-color="#007E39"/>
</linearGradient>
<linearGradient id="paint5_linear" x1="101.545" y1="87.7633" x2="415.251" y2="78.0125" gradientUnits="userSpaceOnUse">
<stop offset="0.47899" stop-color="#004515"/>
<stop offset="1" stop-color="#007E39"/>
</linearGradient>
<linearGradient id="paint6_linear" x1="101.545" y1="87.7633" x2="415.25" y2="78.0126" gradientUnits="userSpaceOnUse">
<stop offset="0.47899" stop-color="#004515"/>
<stop offset="1" stop-color="#007E39"/>
</linearGradient>
<linearGradient id="paint7_linear" x1="101.545" y1="87.7633" x2="415.25" y2="78.0126" gradientUnits="userSpaceOnUse">
<stop offset="0.47899" stop-color="#004515"/>
<stop offset="1" stop-color="#007E39"/>
</linearGradient>
<linearGradient id="paint8_linear" x1="101.545" y1="87.7633" x2="415.25" y2="78.0126" gradientUnits="userSpaceOnUse">
<stop offset="0.47899" stop-color="#004515"/>
<stop offset="1" stop-color="#007E39"/>
</linearGradient>
<linearGradient id="paint9_linear" x1="101.545" y1="87.7633" x2="415.251" y2="78.0126" gradientUnits="userSpaceOnUse">
<stop offset="0.47899" stop-color="#004515"/>
<stop offset="1" stop-color="#007E39"/>
</linearGradient>
<linearGradient id="paint10_linear" x1="101.545" y1="87.7633" x2="415.25" y2="78.0126" gradientUnits="userSpaceOnUse">
<stop offset="0.47899" stop-color="#004515"/>
<stop offset="1" stop-color="#007E39"/>
</linearGradient>
<linearGradient id="paint11_linear" x1="101.545" y1="87.7632" x2="415.25" y2="78.0126" gradientUnits="userSpaceOnUse">
<stop offset="0.47899" stop-color="#004515"/>
<stop offset="1" stop-color="#007E39"/>
</linearGradient>
<linearGradient id="paint12_linear" x1="101.545" y1="87.7633" x2="415.25" y2="78.0126" gradientUnits="userSpaceOnUse">
<stop offset="0.47899" stop-color="#004515"/>
<stop offset="1" stop-color="#007E39"/>
</linearGradient>
<linearGradient id="paint13_linear" x1="101.545" y1="87.7632" x2="415.25" y2="78.0125" gradientUnits="userSpaceOnUse">
<stop offset="0.47899" stop-color="#004515"/>
<stop offset="1" stop-color="#007E39"/>
</linearGradient>
<linearGradient id="paint14_linear" x1="101.545" y1="87.7633" x2="415.25" y2="78.0126" gradientUnits="userSpaceOnUse">
<stop offset="0.47899" stop-color="#004515"/>
<stop offset="1" stop-color="#007E39"/>
</linearGradient>
<linearGradient id="paint15_linear" x1="101.544" y1="87.7633" x2="415.25" y2="78.0126" gradientUnits="userSpaceOnUse">
<stop offset="0.47899" stop-color="#004515"/>
<stop offset="1" stop-color="#007E39"/>
</linearGradient>
<linearGradient id="paint16_linear" x1="101.545" y1="87.7633" x2="415.251" y2="78.0125" gradientUnits="userSpaceOnUse">
<stop offset="0.47899" stop-color="#004515"/>
<stop offset="1" stop-color="#007E39"/>
</linearGradient>
<linearGradient id="paint17_linear" x1="101.545" y1="87.7633" x2="415.25" y2="78.0126" gradientUnits="userSpaceOnUse">
<stop offset="0.47899" stop-color="#004515"/>
<stop offset="1" stop-color="#007E39"/>
</linearGradient>
<linearGradient id="paint18_linear" x1="101.544" y1="87.7633" x2="415.25" y2="78.0125" gradientUnits="userSpaceOnUse">
<stop offset="0.47899" stop-color="#004515"/>
<stop offset="1" stop-color="#007E39"/>
</linearGradient>
<linearGradient id="paint19_linear" x1="101.544" y1="87.7633" x2="415.25" y2="78.0125" gradientUnits="userSpaceOnUse">
<stop offset="0.47899" stop-color="#004515"/>
<stop offset="1" stop-color="#007E39"/>
</linearGradient>
<linearGradient id="paint20_linear" x1="101.544" y1="87.7632" x2="415.251" y2="78.0125" gradientUnits="userSpaceOnUse">
<stop offset="0.47899" stop-color="#004515"/>
<stop offset="1" stop-color="#007E39"/>
</linearGradient>
<linearGradient id="paint21_linear" x1="101.544" y1="87.7633" x2="415.251" y2="78.0125" gradientUnits="userSpaceOnUse">
<stop offset="0.47899" stop-color="#004515"/>
<stop offset="1" stop-color="#007E39"/>
</linearGradient>
<linearGradient id="paint22_linear" x1="101.545" y1="87.7633" x2="415.25" y2="78.0126" gradientUnits="userSpaceOnUse">
<stop offset="0.47899" stop-color="#004515"/>
<stop offset="1" stop-color="#007E39"/>
</linearGradient>
<linearGradient id="paint23_linear" x1="101.544" y1="87.7632" x2="415.251" y2="78.0125" gradientUnits="userSpaceOnUse">
<stop offset="0.47899" stop-color="#004515"/>
<stop offset="1" stop-color="#007E39"/>
</linearGradient>
<linearGradient id="paint24_linear" x1="101.543" y1="87.7633" x2="415.251" y2="78.0124" gradientUnits="userSpaceOnUse">
<stop offset="0.47899" stop-color="#004515"/>
<stop offset="1" stop-color="#007E39"/>
</linearGradient>
<linearGradient id="paint25_linear" x1="101.543" y1="87.7633" x2="415.251" y2="78.0124" gradientUnits="userSpaceOnUse">
<stop offset="0.47899" stop-color="#004515"/>
<stop offset="1" stop-color="#007E39"/>
</linearGradient>
<linearGradient id="paint26_linear" x1="101.544" y1="87.7633" x2="415.251" y2="78.0125" gradientUnits="userSpaceOnUse">
<stop offset="0.47899" stop-color="#004515"/>
<stop offset="1" stop-color="#007E39"/>
</linearGradient>
<linearGradient id="paint27_linear" x1="101.544" y1="87.7633" x2="415.25" y2="78.0125" gradientUnits="userSpaceOnUse">
<stop offset="0.47899" stop-color="#004515"/>
<stop offset="1" stop-color="#007E39"/>
</linearGradient>
<linearGradient id="paint28_linear" x1="101.545" y1="87.7633" x2="415.25" y2="78.0126" gradientUnits="userSpaceOnUse">
<stop offset="0.47899" stop-color="#004515"/>
<stop offset="1" stop-color="#007E39"/>
</linearGradient>
<linearGradient id="paint29_linear" x1="101.544" y1="87.7632" x2="415.251" y2="78.0125" gradientUnits="userSpaceOnUse">
<stop offset="0.47899" stop-color="#004515"/>
<stop offset="1" stop-color="#007E39"/>
</linearGradient>
<linearGradient id="paint30_linear" x1="101.545" y1="87.7633" x2="415.25" y2="78.0126" gradientUnits="userSpaceOnUse">
<stop offset="0.47899" stop-color="#004515"/>
<stop offset="1" stop-color="#007E39"/>
</linearGradient>
<clipPath id="clip0">
<rect width="354" height="128" fill="white"/>
</clipPath>
</defs>
</svg>
